<svg width="40" height="40" viewBox="0 0 40 40" fill="none" xmlns="http://www.w3.org/2000/svg">
<circle cx="20" cy="20" r="20" fill="#3E3F3A"/>
<path d="M32.275 10.25H29.75V7.72497C29.75 7.04997 29.2 6.49997 28.525 6.49997H28.4875C27.8 6.49997 27.25 7.04997 27.25 7.72497V10.25H24.7375C24.0625 10.25 23.5125 10.8 23.5 11.475V11.5125C23.5 12.2 24.05 12.75 24.7375 12.75H27.25V15.2625C27.25 15.9375 27.8 16.5 28.4875 16.4875H28.525C29.2 16.4875 29.75 15.9375 29.75 15.2625V12.75H32.275C32.95 12.75 33.5 12.2 33.5 11.525V11.475C33.5 10.8 32.95 10.25 32.275 10.25ZM26 15.2625V14H24.7375C24.075 14 23.45 13.7375 22.975 13.275C22.5125 12.8 22.25 12.175 22.25 11.475C22.25 11.025 22.375 10.6125 22.5875 10.25H12.25C10.875 10.25 9.75 11.375 9.75 12.75V27.75C9.75 29.125 10.875 30.25 12.25 30.25H27.25C28.625 30.25 29.75 29.125 29.75 27.75V17.4C29.375 17.6125 28.95 17.75 28.475 17.75C27.8185 17.7434 27.1909 17.4788 26.7278 17.0134C26.2647 16.548 26.0033 15.919 26 15.2625ZM25.95 27.75H13.5C13.3839 27.75 13.2702 27.7176 13.1714 27.6566C13.0727 27.5956 12.9929 27.5083 12.941 27.4045C12.8891 27.3007 12.8671 27.1844 12.8775 27.0688C12.8879 26.9532 12.9304 26.8428 13 26.75L15.475 23.4625C15.7375 23.1125 16.25 23.1375 16.5 23.4875L18.5 26.5L21.7625 22.15C22.0125 21.825 22.5 21.8125 22.75 22.1375L26.4375 26.7375C26.7625 27.15 26.475 27.75 25.95 27.75Z" fill="#EFEFEF"/>
</svg>
