<svg width="30" height="30" viewBox="0 0 30 30" fill="none" xmlns="http://www.w3.org/2000/svg">
<g clip-path="url(#clip0_215_479)">
<path fill-rule="evenodd" clip-rule="evenodd" d="M28.75 0H1.25C0.918479 0 0.600537 0.131696 0.366117 0.366117C0.131696 0.600537 0 0.918479 0 1.25L0 28.75C0 29.0815 0.131696 29.3995 0.366117 29.6339C0.600537 29.8683 0.918479 30 1.25 30H15.9375V18.75H12.1875V14.0625H15.9375V10.3125C15.9375 6.4375 18.3913 4.53125 21.8475 4.53125C23.5025 4.53125 24.9262 4.655 25.34 4.70875V8.75875L22.9437 8.76C21.0637 8.76 20.625 9.65375 20.625 10.9637V14.0625H25.3125L24.375 18.75H20.625L20.7 30H28.75C29.0815 30 29.3995 29.8683 29.6339 29.6339C29.8683 29.3995 30 29.0815 30 28.75V1.25C30 0.918479 29.8683 0.600537 29.6339 0.366117C29.3995 0.131696 29.0815 0 28.75 0" fill="white"/>
</g>
<defs>
<clipPath id="clip0_215_479">
<rect width="30" height="30" fill="white"/>
</clipPath>
</defs>
</svg>
