<svg width="30" height="30" viewBox="0 0 30 30" fill="none" xmlns="http://www.w3.org/2000/svg">
<path d="M3.51651 19.3334L1.93318 26.1667C1.87856 26.4165 1.88043 26.6753 1.93866 26.9243C1.99688 27.1733 2.11 27.4061 2.26973 27.6058C2.42946 27.8054 2.63178 27.9669 2.86191 28.0784C3.09203 28.1898 3.34415 28.2485 3.59984 28.25C3.71899 28.2621 3.83904 28.2621 3.95818 28.25L10.8332 26.6667L24.0332 13.5167L16.6665 6.16669L3.51651 19.3334Z" fill="#3E3F3A"/>
<path d="M28.1829 6.93335L23.2663 2.01668C22.943 1.69507 22.5056 1.51453 22.0496 1.51453C21.5936 1.51453 21.1562 1.69507 20.8329 2.01668L18.0996 4.75002L25.4579 12.1083L28.1913 9.37502C28.3512 9.21425 28.4779 9.02352 28.5641 8.81374C28.6502 8.60395 28.6942 8.37924 28.6934 8.15245C28.6927 7.92567 28.6472 7.70126 28.5596 7.49207C28.472 7.28288 28.344 7.09302 28.1829 6.93335Z" fill="#3E3F3A"/>
</svg>
