<svg width="65" height="65" viewBox="0 0 65 65" fill="none" xmlns="http://www.w3.org/2000/svg">
<circle cx="32.5" cy="32.5" r="32.5" fill="#3E3F3A"/>
<path fill-rule="evenodd" clip-rule="evenodd" d="M32.43 12.9998C21.6949 12.9998 13 21.9146 13 32.9212C13 41.7365 18.5618 49.1821 26.2853 51.8217C27.2568 51.996 27.6211 51.3984 27.6211 50.8754C27.6211 50.4023 27.5968 48.8335 27.5968 47.1651C22.715 48.0864 21.4521 45.9449 21.0635 44.8243C20.8449 44.2515 19.8977 42.4835 19.0719 42.0104C18.3918 41.6369 17.4203 40.7155 19.0476 40.6906C20.5777 40.6657 21.6706 42.1349 22.035 42.7325C23.7837 45.7457 26.5767 44.899 27.6939 44.3761C27.864 43.0812 28.374 42.2096 28.9326 41.7116C24.6094 41.2135 20.092 39.4953 20.092 31.8753C20.092 29.7089 20.8449 27.9159 22.0835 26.5214C21.8892 26.0234 21.2092 23.9815 22.2778 21.2423C22.2778 21.2423 23.9051 20.7193 27.6211 23.2842C29.1755 22.836 30.827 22.6119 32.4786 22.6119C34.1301 22.6119 35.7817 22.836 37.3361 23.2842C41.0521 20.6944 42.6793 21.2423 42.6793 21.2423C43.748 23.9815 43.0679 26.0234 42.8736 26.5214C44.1123 27.9159 44.8652 29.684 44.8652 31.8753C44.8652 39.5202 40.3234 41.2135 36.0003 41.7116C36.7046 42.3341 37.3118 43.5294 37.3118 45.397C37.3118 48.0615 37.2875 50.2031 37.2875 50.8754C37.2875 51.3984 37.6518 52.0209 38.6233 51.8217C42.4805 50.4865 45.8321 47.9448 48.2066 44.5543C50.5811 41.1638 51.8588 37.0952 51.86 32.9212C51.86 21.9146 43.1651 12.9998 32.43 12.9998Z" fill="white"/>
</svg>
