<svg width="65" height="65" viewBox="0 0 65 65" fill="none" xmlns="http://www.w3.org/2000/svg">
<path d="M65 32.5C65 50.4493 50.4493 65 32.5 65C14.5507 65 0 50.4493 0 32.5C0 14.5507 14.5507 0 32.5 0C50.4493 0 65 14.5507 65 32.5Z" fill="white"/>
<g clip-path="url(#clip0_989_558)">
<path d="M46.3778 46.3783H40.7474V37.5606C40.7474 35.458 40.7098 32.7513 37.819 32.7513C34.8865 32.7513 34.4378 35.0422 34.4378 37.4076V46.3777H28.8075V28.2451H34.2126V30.7232H34.2883C34.8292 29.7982 35.6109 29.0374 36.55 28.5215C37.4892 28.0057 38.5506 27.7543 39.6214 27.794C45.328 27.794 46.3802 31.5477 46.3802 36.431L46.3778 46.3783V46.3783ZM22.4544 25.7667C20.6499 25.767 19.1867 24.3043 19.1864 22.4997C19.1861 20.6952 20.6487 19.232 22.4532 19.2317C24.2578 19.2313 25.7209 20.694 25.7212 22.4985C25.7214 23.3651 25.3773 24.1963 24.7646 24.8092C24.152 25.422 23.321 25.7665 22.4544 25.7667V25.7667ZM25.2697 46.3784H19.6334V28.2451H25.2695V46.3783L25.2697 46.3784ZM49.1847 14.0027H16.8041C15.2737 13.9855 14.0187 15.2114 14 16.7418V49.2575C14.0181 50.7886 15.273 52.0158 16.804 51.9997H49.1847C50.719 52.0187 51.9788 50.7916 52 49.2575V16.7393C51.9782 15.2059 50.7182 13.9801 49.1847 14.0002" fill="#0A66C2"/>
</g>
<defs>
<clipPath id="clip0_989_558">
<rect width="38" height="38" fill="white" transform="translate(14 14)"/>
</clipPath>
</defs>
</svg>
