<svg width="68" height="65" viewBox="0 0 68 65" fill="none" xmlns="http://www.w3.org/2000/svg">
<path d="M67.0635 32.5C67.0635 50.4493 52.0508 65 33.5317 65C15.0127 65 0 50.4493 0 32.5C0 14.5507 15.0127 0 33.5317 0C52.0508 0 67.0635 14.5507 67.0635 32.5Z" fill="white"/>
<path d="M52.9954 20.7749C51.5975 21.3944 50.0954 21.8132 48.5188 22.0015C50.1282 21.0374 51.3639 19.5107 51.9458 17.6916C50.4159 18.5991 48.742 19.2384 46.9965 19.582C45.5747 18.0681 43.5491 17.1219 41.3072 17.1219C37.0027 17.1219 33.5128 20.6099 33.5128 24.912C33.5128 25.5226 33.5818 26.1171 33.7146 26.6874C27.2369 26.3624 21.4938 23.2611 17.6495 18.5479C16.9788 19.6985 16.5944 21.0368 16.5944 22.4643C16.5944 25.1671 17.9705 27.5514 20.0618 28.9485C18.824 28.9097 17.6135 28.5756 16.5313 27.974C16.5309 28.0066 16.5309 28.0393 16.5309 28.072C16.5309 31.8465 19.2175 34.9951 22.783 35.7108C21.6353 36.0228 20.4313 36.0684 19.2632 35.8443C20.255 38.9392 23.1335 41.1914 26.5441 41.2545C23.8766 43.3438 20.5157 44.5893 16.8642 44.5893C16.235 44.5893 15.6147 44.5523 15.0049 44.4804C18.4542 46.6907 22.5511 47.9804 26.9526 47.9804C41.2891 47.9804 49.1287 36.1098 49.1287 25.8154C49.1287 25.4775 49.1213 25.1416 49.1061 24.8075C50.632 23.705 51.9491 22.3394 52.9954 20.7749" fill="#55ACEE"/>
</svg>
