<svg width="67" height="67" viewBox="0 0 67 67" fill="none" xmlns="http://www.w3.org/2000/svg">
<circle cx="33.5" cy="33.5" r="33.5" fill="#29ABE0"/>
<path opacity="0.1" d="M8.33863 29.2139C9.88695 29.2139 11.1421 27.9597 11.1421 26.4125C11.1421 24.8653 9.88695 23.6111 8.33863 23.6111C6.79031 23.6111 5.53516 24.8653 5.53516 26.4125C5.53516 27.9597 6.79031 29.2139 8.33863 29.2139Z" fill="black"/>
<path opacity="0.1" d="M11.1668 54.7372C12.7151 54.7372 13.9702 53.483 13.9702 51.9358C13.9702 50.3886 12.7151 49.1344 11.1668 49.1344C9.61844 49.1344 8.36328 50.3886 8.36328 51.9358C8.36328 53.483 9.61844 54.7372 11.1668 54.7372Z" fill="black"/>
<path opacity="0.1" d="M32.2107 24.1391C33.759 24.1391 35.0142 22.8848 35.0142 21.3376C35.0142 19.7905 33.759 18.5362 32.2107 18.5362C30.6624 18.5362 29.4072 19.7905 29.4072 21.3376C29.4072 22.8848 30.6624 24.1391 32.2107 24.1391Z" fill="black"/>
<path opacity="0.1" d="M49.0711 19.8645C50.6194 19.8645 51.8745 18.6103 51.8745 17.0631C51.8745 15.516 50.6194 14.2617 49.0711 14.2617C47.5227 14.2617 46.2676 15.516 46.2676 17.0631C46.2676 18.6103 47.5227 19.8645 49.0711 19.8645Z" fill="black"/>
<path opacity="0.1" d="M56.8191 42.3292C58.3674 42.3292 59.6226 41.075 59.6226 39.5278C59.6226 37.9806 58.3674 36.7264 56.8191 36.7264C55.2708 36.7264 54.0156 37.9806 54.0156 39.5278C54.0156 41.075 55.2708 42.3292 56.8191 42.3292Z" fill="black"/>
<path d="M49.0596 9.02876C51.0784 9.02876 52.7149 7.39343 52.7149 5.37614C52.7149 3.35885 51.0784 1.72351 49.0596 1.72351C47.0408 1.72351 45.4043 3.35885 45.4043 5.37614C45.4043 7.39343 47.0408 9.02876 49.0596 9.02876Z" fill="white"/>
<path d="M49.0713 0C47.6857 1.81638e-06 46.3568 0.550052 45.3769 1.52914C44.3971 2.50824 43.8467 3.83617 43.8467 5.22081C43.8467 8.10419 49.0713 17.5725 49.0713 17.5725C49.0713 17.5725 54.296 8.1042 54.296 5.22081C54.296 3.83617 53.7455 2.50824 52.7657 1.52914C51.7859 0.550052 50.457 1.81638e-06 49.0713 0ZM49.0713 7.76756C48.5925 7.76756 48.1243 7.62566 47.7262 7.35981C47.328 7.09397 47.0177 6.71611 46.8344 6.27402C46.6512 5.83193 46.6032 5.34547 46.6967 4.87615C46.7901 4.40683 47.0207 3.97573 47.3593 3.63737C47.6979 3.29901 48.1293 3.06858 48.599 2.97523C49.0686 2.88188 49.5555 2.92979 49.9979 3.11291C50.4403 3.29603 50.8184 3.60613 51.0845 4.004C51.3505 4.40187 51.4925 4.86964 51.4925 5.34815C51.4925 5.98982 51.2374 6.6052 50.7834 7.05893C50.3293 7.51266 49.7135 7.76756 49.0713 7.76756Z" fill="#3E3F3A"/>
<path opacity="0.1" d="M40.1375 58.5642C41.6858 58.5642 42.9409 57.3099 42.9409 55.7628C42.9409 54.2156 41.6858 52.9613 40.1375 52.9613C38.5891 52.9613 37.334 54.2156 37.334 55.7628C37.334 57.3099 38.5891 58.5642 40.1375 58.5642Z" fill="black"/>
<path d="M40.3916 45.1524C42.4104 45.1524 44.047 43.5171 44.047 41.4998C44.047 39.4825 42.4104 37.8472 40.3916 37.8472C38.3729 37.8472 36.7363 39.4825 36.7363 41.4998C36.7363 43.5171 38.3729 45.1524 40.3916 45.1524Z" fill="white"/>
<path d="M40.0957 36.9146C38.7101 36.9146 37.3812 37.4646 36.4014 38.4437C35.4215 39.4228 34.8711 40.7507 34.8711 42.1354C34.8711 45.0187 40.0957 54.4871 40.0957 54.4871C40.0957 54.4871 45.3204 45.0188 45.3204 42.1354C45.3204 40.7507 44.7699 39.4228 43.7901 38.4437C42.8103 37.4646 41.4814 36.9146 40.0957 36.9146ZM40.0957 44.6821C39.6169 44.6821 39.1488 44.5402 38.7506 44.2744C38.3524 44.0085 38.0421 43.6307 37.8589 43.1886C37.6756 42.7465 37.6277 42.26 37.7211 41.7907C37.8145 41.3214 38.0451 40.8903 38.3837 40.5519C38.7223 40.2136 39.1537 39.9831 39.6234 39.8898C40.093 39.7964 40.5799 39.8443 41.0223 40.0275C41.4647 40.2106 41.8428 40.5207 42.1089 40.9186C42.3749 41.3164 42.5169 41.7842 42.5169 42.2627C42.5169 42.9044 42.2618 43.5198 41.8078 43.9735C41.3537 44.4272 40.7379 44.6821 40.0957 44.6821Z" fill="#3E3F3A"/>
<path d="M32.1582 12.8352C34.177 12.8352 35.8136 11.1998 35.8136 9.18253C35.8136 7.16524 34.177 5.52991 32.1582 5.52991C30.1395 5.52991 28.5029 7.16524 28.5029 9.18253C28.5029 11.1998 30.1395 12.8352 32.1582 12.8352Z" fill="white"/>
<path d="M32.169 3.80646C30.7833 3.80646 29.4544 4.35651 28.4746 5.3356C27.4948 6.31469 26.9443 7.64263 26.9443 9.02727C26.9443 11.9106 32.169 21.379 32.169 21.379C32.169 21.379 37.3936 11.9107 37.3936 9.02727C37.3936 7.64263 36.8432 6.31469 35.8634 5.3356C34.8835 4.35651 33.5546 3.80646 32.169 3.80646ZM32.169 11.574C31.6901 11.574 31.222 11.4321 30.8238 11.1663C30.4257 10.9004 30.1153 10.5226 29.9321 10.0805C29.7488 9.63838 29.7009 9.15193 29.7943 8.68261C29.8877 8.21329 30.1183 7.78219 30.4569 7.44383C30.7956 7.10547 31.227 6.87504 31.6966 6.78169C32.1663 6.68833 32.6531 6.73624 33.0955 6.91936C33.5379 7.10248 33.9161 7.41259 34.1821 7.81046C34.4482 8.20833 34.5902 8.6761 34.5902 9.15461C34.5902 9.47233 34.5275 9.78694 34.4059 10.0805C34.2842 10.374 34.1058 10.6407 33.881 10.8654C33.6562 11.09 33.3893 11.2683 33.0955 11.3898C32.8018 11.5114 32.4869 11.574 32.169 11.574Z" fill="#EFEFEF"/>
<path d="M56.8731 30.555C58.8919 30.555 60.5284 28.9197 60.5284 26.9024C60.5284 24.8851 58.8919 23.2498 56.8731 23.2498C54.8543 23.2498 53.2178 24.8851 53.2178 26.9024C53.2178 28.9197 54.8543 30.555 56.8731 30.555Z" fill="white"/>
<path d="M56.8838 21.5263C55.4982 21.5263 54.1692 22.0763 53.1894 23.0554C52.2096 24.0345 51.6592 25.3624 51.6592 26.7471C51.6592 29.6305 56.8838 39.0988 56.8838 39.0988C56.8838 39.0988 62.1085 29.6305 62.1085 26.7471C62.1085 25.3624 61.558 24.0345 60.5782 23.0554C59.5984 22.0763 58.2695 21.5263 56.8838 21.5263ZM56.8838 29.2938C56.405 29.2938 55.9368 29.1519 55.5387 28.8861C55.1405 28.6202 54.8302 28.2424 54.6469 27.8003C54.4637 27.3582 54.4157 26.8717 54.5092 26.4024C54.6026 25.9331 54.8332 25.502 55.1718 25.1636C55.5104 24.8253 55.9418 24.5949 56.4115 24.5015C56.8811 24.4082 57.3679 24.4561 57.8104 24.6392C58.2528 24.8223 58.6309 25.1324 58.897 25.5303C59.163 25.9281 59.305 26.3959 59.305 26.8744C59.305 27.5161 59.0499 28.1315 58.5959 28.5852C58.1418 29.0389 57.526 29.2938 56.8838 29.2938Z" fill="#EFEFEF"/>
<path d="M8.37601 17.4983C10.3948 17.4983 12.0313 15.863 12.0313 13.8457C12.0313 11.8284 10.3948 10.1931 8.37601 10.1931C6.35724 10.1931 4.7207 11.8284 4.7207 13.8457C4.7207 15.863 6.35724 17.4983 8.37601 17.4983Z" fill="white"/>
<path d="M8.38676 8.46954C7.00109 8.46955 5.67218 9.0196 4.69237 9.99869C3.71256 10.9778 3.16211 12.3057 3.16211 13.6904C3.16211 16.5737 8.38676 26.0421 8.38676 26.0421C8.38676 26.0421 13.6114 16.5737 13.6114 13.6904C13.6114 12.3057 13.0609 10.9778 12.0811 9.99869C11.1013 9.0196 9.77242 8.46955 8.38676 8.46954ZM8.38676 16.2371C7.90789 16.2371 7.43978 16.0952 7.04162 15.8294C6.64345 15.5635 6.33312 15.1857 6.14987 14.7436C5.96661 14.3015 5.91866 13.815 6.01209 13.3457C6.10551 12.8764 6.33611 12.4453 6.67472 12.1069C7.01333 11.7686 7.44474 11.5381 7.91441 11.4448C8.38407 11.3514 8.87089 11.3993 9.3133 11.5825C9.75572 11.7656 10.1339 12.0757 10.3999 12.4735C10.6659 12.8714 10.8079 13.3392 10.8079 13.8177C10.8079 14.4594 10.5529 15.0747 10.0988 15.5285C9.64474 15.9822 9.0289 16.2371 8.38676 16.2371Z" fill="#EFEFEF"/>
<path d="M11.1739 43.1455C13.1926 43.1455 14.8292 41.5101 14.8292 39.4928C14.8292 37.4755 13.1926 35.8402 11.1739 35.8402C9.15509 35.8402 7.51855 37.4755 7.51855 39.4928C7.51855 41.5101 9.15509 43.1455 11.1739 43.1455Z" fill="white"/>
<path d="M11.1856 34.1167C9.79992 34.1167 8.47101 34.6668 7.4912 35.6458C6.51139 36.6249 5.96094 37.9529 5.96094 39.3375C5.96094 42.2209 11.1856 51.6892 11.1856 51.6892C11.1856 51.6892 16.4102 42.2209 16.4102 39.3375C16.4102 37.9529 15.8598 36.6249 14.88 35.6458C13.9002 34.6668 12.5712 34.1167 11.1856 34.1167ZM11.1856 41.8843C10.7067 41.8843 10.2386 41.7424 9.84044 41.4765C9.44228 41.2107 9.13195 40.8328 8.94869 40.3907C8.76544 39.9486 8.71749 39.4622 8.81091 38.9929C8.90434 38.5235 9.13493 38.0924 9.47354 37.7541C9.81215 37.4157 10.2436 37.1853 10.7132 37.0919C11.1829 36.9986 11.6697 37.0465 12.1121 37.2296C12.5545 37.4127 12.9327 37.7228 13.1987 38.1207C13.4648 38.5186 13.6068 38.9863 13.6068 39.4649C13.6068 40.1065 13.3517 40.7219 12.8976 41.1756C12.4436 41.6294 11.8277 41.8843 11.1856 41.8843Z" fill="#3E3F3A"/>
</svg>
