<svg width="428" height="400" viewBox="0 0 428 400" fill="none" xmlns="http://www.w3.org/2000/svg">
<path d="M8.77965 138.094C39.2164 119.463 81.137 126.702 110.791 146.443C120.468 152.973 129.357 160.495 137.295 168.874C141.925 173.69 146.314 178.746 150.511 183.976C151.546 185.26 152.575 186.556 153.584 187.865C154.275 188.749 154.96 189.64 155.639 190.538C164.153 201.762 171.958 213.57 179.599 225.271C198.673 254.481 218.245 284.56 247.308 305.068C253.296 309.292 261.649 313.096 267.784 309.062C273.108 305.56 273.336 298.194 272.124 292.158C267.62 269.795 251.372 251.262 234.112 235.442C216.851 219.622 197.743 205.118 184.701 186.002C171.659 166.885 165.7 141.365 177.124 121.344C186.969 104.09 208.151 94.4126 228.827 93.9619C249.5 93.5154 269.587 101.138 287.079 111.605C304.568 122.076 319.948 135.362 335.998 147.733C345.674 155.197 359.183 162.603 369.727 156.284C378.633 150.943 379.328 138.123 374.02 129.491C368.712 120.86 359.238 115.435 350.156 110.376C321.958 94.6639 293.76 78.9531 265.562 63.2437C256.91 58.4282 248.071 53.4587 241.685 46.1158C235.297 38.7772 231.751 28.4629 235.272 19.5513C238.745 10.7691 248.446 5.19256 258.261 4.02878C268.07 2.86767 277.962 5.44731 287.138 8.94153C321.522 22.0392 402.484 107.726 424.062 122.376C437.929 131.785 452.496 143.697 453.898 159.813C455.645 179.877 434.598 196.527 413.472 198.473C392.349 200.425 371.876 191.713 353.002 182.503C334.129 173.293 314.867 163.137 293.682 161.859C272.497 160.581 248.729 171.322 243.708 190.883C239.34 207.904 250.443 225.468 264.904 236.359C276.224 244.886 289.509 250.564 302.342 256.95C305.905 258.717 309.431 260.545 312.87 262.499C321.675 267.512 329.905 273.381 337.428 280.011C345.325 286.96 352.414 294.692 358.572 303.075C363.487 309.755 367.775 316.83 371.387 324.22C371.938 325.348 372.472 326.493 372.991 327.653C373.482 328.762 373.957 329.886 374.409 331.021C380.299 345.738 382.593 362.23 375.069 375.968C367.563 389.669 351.306 397.782 335.073 398.907C325.684 399.439 316.274 398.26 307.352 395.434C300.791 393.412 294.439 390.823 288.377 387.698C260.272 373.39 238.022 350.701 217.702 327.376C197.386 304.052 178.256 279.495 154.138 259.696C130.021 239.893 99.7992 224.921 67.9 225.149C36.0023 225.372 3.11943 243.807 -5.94007 272.815C-19.1452 251.233 -28.0746 226.629 -26.8957 201.703C-25.7167 176.777 -13.3234 151.627 8.77965 138.094Z" fill="#ACE7FF"/>
<path d="M132.532 218.736C134.468 218.736 136.037 217.247 136.037 215.411C136.037 213.576 134.468 212.087 132.532 212.087C130.597 212.087 129.028 213.576 129.028 215.411C129.028 217.247 130.597 218.736 132.532 218.736Z" fill="#325D88"/>
<path d="M392.081 178.015C393.186 178.015 394.083 177.165 394.083 176.116C394.083 175.068 393.186 174.218 392.081 174.218C390.975 174.218 390.079 175.068 390.079 176.116C390.079 177.165 390.975 178.015 392.081 178.015Z" fill="#D9534F"/>
<path d="M44.7418 199.574C45.8726 199.574 46.7893 198.704 46.7893 197.632C46.7893 196.559 45.8726 195.69 44.7418 195.69C43.611 195.69 42.6943 196.559 42.6943 197.632C42.6943 198.704 43.611 199.574 44.7418 199.574Z" fill="#F0F0F0"/>
<path d="M295.592 55.8885C296.723 55.8885 297.64 55.019 297.64 53.9464C297.64 52.8739 296.723 52.0044 295.592 52.0044C294.462 52.0044 293.545 52.8739 293.545 53.9464C293.545 55.019 294.462 55.8885 295.592 55.8885Z" fill="#F0F0F0"/>
<path d="M277.157 21.2956C278.288 21.2956 279.204 20.4261 279.204 19.3535C279.204 18.281 278.288 17.4115 277.157 17.4115C276.026 17.4115 275.109 18.281 275.109 19.3535C275.109 20.4261 276.026 21.2956 277.157 21.2956Z" fill="#F0F0F0"/>
<path d="M422.137 150.242C423.268 150.242 424.184 149.373 424.184 148.3C424.184 147.228 423.268 146.358 422.137 146.358C421.006 146.358 420.089 147.228 420.089 148.3C420.089 149.373 421.006 150.242 422.137 150.242Z" fill="#F0F0F0"/>
<path d="M314.588 153.032C315.718 153.032 316.635 152.163 316.635 151.09C316.635 150.018 315.718 149.148 314.588 149.148C313.457 149.148 312.54 150.018 312.54 151.09C312.54 152.163 313.457 153.032 314.588 153.032Z" fill="#F0F0F0"/>
<path d="M257.514 338.267C258.645 338.267 259.562 337.397 259.562 336.325C259.562 335.252 258.645 334.383 257.514 334.383C256.383 334.383 255.467 335.252 255.467 336.325C255.467 337.397 256.383 338.267 257.514 338.267Z" fill="#F0F0F0"/>
<path d="M193.175 156.094C194.306 156.094 195.222 155.225 195.222 154.152C195.222 153.079 194.306 152.21 193.175 152.21C192.044 152.21 191.127 153.079 191.127 154.152C191.127 155.225 192.044 156.094 193.175 156.094Z" fill="#F0F0F0"/>
<path d="M190.3 119.372C191.431 119.372 192.348 118.502 192.348 117.43C192.348 116.357 191.431 115.488 190.3 115.488C189.17 115.488 188.253 116.357 188.253 117.43C188.253 118.502 189.17 119.372 190.3 119.372Z" fill="#F0F0F0"/>
<path d="M311.304 370.961C312.435 370.961 313.351 370.091 313.351 369.019C313.351 367.946 312.435 367.077 311.304 367.077C310.173 367.077 309.256 367.946 309.256 369.019C309.256 370.091 310.173 370.961 311.304 370.961Z" fill="#F0F0F0"/>
<path opacity="0.3" d="M26.1953 148.575C30.8497 148.782 40.4761 150.974 50.9075 153.809C61.3327 156.646 72.6407 160.107 83.8048 163.531C103.348 169.519 122.889 175.505 142.43 181.49C145.117 182.311 147.811 183.14 150.512 183.976C151.546 185.259 152.575 186.556 153.585 187.864C151.21 187.068 148.826 186.298 146.45 185.564C136.295 182.434 127.483 180.37 117.627 177.522C102.46 173.143 86.4593 167.392 70.9407 162.037C55.4236 156.678 37.6202 150.909 26.1953 148.575Z" fill="#F0F0F0"/>
<path opacity="0.3" d="M373.674 110.556L417.63 179.768L376.154 109.179C376.105 108.955 376.001 108.745 375.85 108.567C375.699 108.389 375.506 108.247 375.286 108.154C375.065 108.06 374.825 108.018 374.584 108.031C374.343 108.043 374.109 108.11 373.901 108.226C373.693 108.341 373.516 108.502 373.387 108.695C373.258 108.888 373.178 109.108 373.156 109.336C373.134 109.564 373.17 109.793 373.26 110.005C373.35 110.218 373.492 110.406 373.674 110.556Z" fill="#F0F0F0"/>
<path d="M352.235 314.816C353.366 314.816 354.283 313.947 354.283 312.874C354.283 311.801 353.366 310.932 352.235 310.932C351.105 310.932 350.188 311.801 350.188 312.874C350.188 313.947 351.105 314.816 352.235 314.816Z" fill="#F0F0F0"/>
<path opacity="0.1" d="M17.2659 181.877C18.8142 181.877 20.0693 180.612 20.0693 179.052C20.0693 177.492 18.8142 176.227 17.2659 176.227C15.7176 176.227 14.4624 177.492 14.4624 179.052C14.4624 180.612 15.7176 181.877 17.2659 181.877Z" fill="black"/>
<path d="M17.5206 168.352C19.5393 168.352 21.1759 166.703 21.1759 164.669C21.1759 162.635 19.5393 160.986 17.5206 160.986C15.5018 160.986 13.8652 162.635 13.8652 164.669C13.8652 166.703 15.5018 168.352 17.5206 168.352Z" fill="white"/>
<path d="M17.2246 160.046C15.839 160.046 14.5101 160.6 13.5303 161.588C12.5504 162.575 12 163.914 12 165.31C12 168.218 17.2246 177.765 17.2246 177.765C17.2246 177.765 22.4493 168.218 22.4493 165.31C22.4493 163.914 21.8988 162.575 20.919 161.588C19.9392 160.6 18.6103 160.046 17.2246 160.046ZM17.2246 167.878C16.7458 167.878 16.2777 167.735 15.8795 167.467C15.4813 167.199 15.171 166.818 14.9878 166.372C14.8045 165.926 14.7566 165.436 14.85 164.963C14.9434 164.489 15.174 164.055 15.5126 163.713C15.8512 163.372 16.2826 163.14 16.7523 163.046C17.222 162.952 17.7088 163 18.1512 163.185C18.5936 163.369 18.9717 163.682 19.2378 164.083C19.5038 164.484 19.6458 164.956 19.6458 165.439C19.6458 166.086 19.3907 166.706 18.9367 167.164C18.4826 167.621 17.8668 167.878 17.2246 167.878Z" fill="#3E3F3A"/>
<path opacity="0.1" d="M45.2659 200.027C46.8142 200.027 48.0694 198.763 48.0694 197.203C48.0694 195.642 46.8142 194.378 45.2659 194.378C43.7176 194.378 42.4624 195.642 42.4624 197.203C42.4624 198.763 43.7176 200.027 45.2659 200.027Z" fill="black"/>
<path d="M45.5206 186.503C47.5393 186.503 49.1759 184.854 49.1759 182.82C49.1759 180.786 47.5393 179.137 45.5206 179.137C43.5018 179.137 41.8652 180.786 41.8652 182.82C41.8652 184.854 43.5018 186.503 45.5206 186.503Z" fill="white"/>
<path d="M45.2246 178.196C43.839 178.196 42.5101 178.751 41.5303 179.738C40.5504 180.726 40 182.065 40 183.461C40 186.369 45.2246 195.916 45.2246 195.916C45.2246 195.916 50.4493 186.369 50.4493 183.461C50.4493 182.065 49.8988 180.726 48.919 179.738C47.9392 178.751 46.6103 178.196 45.2246 178.196ZM45.2246 186.029C44.7458 186.029 44.2777 185.886 43.8795 185.618C43.4813 185.35 43.171 184.969 42.9878 184.523C42.8045 184.077 42.7566 183.587 42.85 183.113C42.9434 182.64 43.174 182.205 43.5126 181.864C43.8512 181.523 44.2826 181.291 44.7523 181.197C45.222 181.102 45.7088 181.151 46.1512 181.335C46.5936 181.52 46.9717 181.833 47.2378 182.234C47.5038 182.635 47.6458 183.107 47.6458 183.589C47.6458 184.236 47.3907 184.857 46.9367 185.314C46.4826 185.772 45.8668 186.029 45.2246 186.029Z" fill="#3E3F3A"/>
<path opacity="0.1" d="M193.266 157.676C194.814 157.676 196.069 156.411 196.069 154.851C196.069 153.29 194.814 152.026 193.266 152.026C191.718 152.026 190.462 153.29 190.462 154.851C190.462 156.411 191.718 157.676 193.266 157.676Z" fill="black"/>
<path d="M193.521 144.151C195.539 144.151 197.176 142.502 197.176 140.468C197.176 138.434 195.539 136.785 193.521 136.785C191.502 136.785 189.865 138.434 189.865 140.468C189.865 142.502 191.502 144.151 193.521 144.151Z" fill="white"/>
<path d="M193.225 135.845C191.839 135.845 190.51 136.399 189.53 137.386C188.55 138.374 188 139.713 188 141.109C188 144.017 193.225 153.564 193.225 153.564C193.225 153.564 198.449 144.017 198.449 141.109C198.449 139.713 197.899 138.374 196.919 137.386C195.939 136.399 194.61 135.845 193.225 135.845ZM193.225 143.677C192.746 143.677 192.278 143.534 191.879 143.266C191.481 142.998 191.171 142.617 190.988 142.171C190.805 141.725 190.757 141.235 190.85 140.762C190.943 140.288 191.174 139.854 191.513 139.512C191.851 139.171 192.283 138.939 192.752 138.845C193.222 138.751 193.709 138.799 194.151 138.983C194.594 139.168 194.972 139.481 195.238 139.882C195.504 140.283 195.646 140.755 195.646 141.237C195.646 141.885 195.391 142.505 194.937 142.963C194.483 143.42 193.867 143.677 193.225 143.677Z" fill="#3E3F3A"/>
<path opacity="0.1" d="M190.266 121.374C191.814 121.374 193.069 120.109 193.069 118.549C193.069 116.989 191.814 115.724 190.266 115.724C188.718 115.724 187.462 116.989 187.462 118.549C187.462 120.109 188.718 121.374 190.266 121.374Z" fill="black"/>
<path d="M190.521 107.85C192.539 107.85 194.176 106.201 194.176 104.167C194.176 102.132 192.539 100.483 190.521 100.483C188.502 100.483 186.865 102.132 186.865 104.167C186.865 106.201 188.502 107.85 190.521 107.85Z" fill="white"/>
<path d="M190.225 99.5428C188.839 99.5428 187.51 100.098 186.53 101.085C185.55 102.072 185 103.411 185 104.807C185 107.715 190.225 117.263 190.225 117.263C190.225 117.263 195.449 107.715 195.449 104.807C195.449 103.411 194.899 102.072 193.919 101.085C192.939 100.098 191.61 99.5428 190.225 99.5428ZM190.225 107.376C189.746 107.376 189.278 107.232 188.879 106.964C188.481 106.696 188.171 106.315 187.988 105.869C187.805 105.424 187.757 104.933 187.85 104.46C187.943 103.987 188.174 103.552 188.513 103.211C188.851 102.87 189.283 102.637 189.752 102.543C190.222 102.449 190.709 102.497 191.151 102.682C191.594 102.866 191.972 103.179 192.238 103.58C192.504 103.982 192.646 104.453 192.646 104.936C192.646 105.583 192.391 106.203 191.937 106.661C191.483 107.118 190.867 107.376 190.225 107.376Z" fill="#EFEFEF"/>
<path opacity="0.1" d="M277.266 21.831C278.814 21.831 280.069 20.5663 280.069 19.0061C280.069 17.446 278.814 16.1812 277.266 16.1812C275.718 16.1812 274.462 17.446 274.462 19.0061C274.462 20.5663 275.718 21.831 277.266 21.831Z" fill="black"/>
<path d="M277.521 8.3069C279.539 8.3069 281.176 6.65786 281.176 4.62366C281.176 2.58947 279.539 0.94043 277.521 0.94043C275.502 0.94043 273.865 2.58947 273.865 4.62366C273.865 6.65786 275.502 8.3069 277.521 8.3069Z" fill="white"/>
<path d="M277.225 0C275.839 1.8316e-06 274.51 0.554661 273.53 1.54196C272.55 2.52925 272 3.86831 272 5.26456C272 8.17209 277.225 17.7197 277.225 17.7197C277.225 17.7197 282.449 8.1721 282.449 5.26456C282.449 3.86831 281.899 2.52925 280.919 1.54196C279.939 0.554661 278.61 1.8316e-06 277.225 0ZM277.225 7.83264C276.746 7.83264 276.278 7.68955 275.879 7.42148C275.481 7.1534 275.171 6.77238 274.988 6.32658C274.805 5.88079 274.757 5.39026 274.85 4.91701C274.943 4.44375 275.174 4.00904 275.513 3.66785C275.851 3.32665 276.283 3.09429 276.752 3.00016C277.222 2.90602 277.709 2.95434 278.151 3.13899C278.594 3.32364 278.972 3.63634 279.238 4.03755C279.504 4.43875 279.646 4.91044 279.646 5.39296C279.646 6.04001 279.391 6.66054 278.937 7.11807C278.483 7.5756 277.867 7.83264 277.225 7.83264Z" fill="#EFEFEF"/>
<path opacity="0.1" d="M296.266 55.8293C297.814 55.8293 299.069 54.5645 299.069 53.0044C299.069 51.4442 297.814 50.1795 296.266 50.1795C294.718 50.1795 293.462 51.4442 293.462 53.0044C293.462 54.5645 294.718 55.8293 296.266 55.8293Z" fill="black"/>
<path d="M296.521 42.3051C298.539 42.3051 300.176 40.6561 300.176 38.6219C300.176 36.5877 298.539 34.9387 296.521 34.9387C294.502 34.9387 292.865 36.5877 292.865 38.6219C292.865 40.6561 294.502 42.3051 296.521 42.3051Z" fill="white"/>
<path d="M296.225 33.9982C294.839 33.9982 293.51 34.5529 292.53 35.5402C291.55 36.5275 291 37.8665 291 39.2628C291 42.1703 296.225 51.718 296.225 51.718C296.225 51.718 301.449 42.1703 301.449 39.2628C301.449 37.8665 300.899 36.5275 299.919 35.5402C298.939 34.5529 297.61 33.9982 296.225 33.9982ZM296.225 41.8309C295.746 41.8309 295.278 41.6878 294.879 41.4197C294.481 41.1516 294.171 40.7706 293.988 40.3248C293.805 39.879 293.757 39.3885 293.85 38.9152C293.943 38.442 294.174 38.0073 294.513 37.6661C294.851 37.3249 295.283 37.0925 295.752 36.9984C296.222 36.9043 296.709 36.9526 297.151 37.1372C297.594 37.3219 297.972 37.6346 298.238 38.0358C298.504 38.437 298.646 38.9087 298.646 39.3912C298.646 40.0382 298.391 40.6588 297.937 41.1163C297.483 41.5738 296.867 41.8309 296.225 41.8309Z" fill="#3E3F3A"/>
<path opacity="0.1" d="M421.266 150.617C422.814 150.617 424.069 149.352 424.069 147.792C424.069 146.232 422.814 144.967 421.266 144.967C419.718 144.967 418.462 146.232 418.462 147.792C418.462 149.352 419.718 150.617 421.266 150.617Z" fill="black"/>
<path d="M421.521 137.093C423.539 137.093 425.176 135.444 425.176 133.41C425.176 131.375 423.539 129.726 421.521 129.726C419.502 129.726 417.865 131.375 417.865 133.41C417.865 135.444 419.502 137.093 421.521 137.093Z" fill="white"/>
<path d="M421.225 128.786C419.839 128.786 418.51 129.341 417.53 130.328C416.55 131.315 416 132.654 416 134.05C416 136.958 421.225 146.506 421.225 146.506C421.225 146.506 426.449 136.958 426.449 134.05C426.449 132.654 425.899 131.315 424.919 130.328C423.939 129.341 422.61 128.786 421.225 128.786ZM421.225 136.619C420.746 136.619 420.278 136.475 419.879 136.207C419.481 135.939 419.171 135.558 418.988 135.112C418.805 134.667 418.757 134.176 418.85 133.703C418.943 133.23 419.174 132.795 419.513 132.454C419.851 132.113 420.283 131.88 420.752 131.786C421.222 131.692 421.709 131.74 422.151 131.925C422.594 132.11 422.972 132.422 423.238 132.823C423.504 133.225 423.646 133.696 423.646 134.179C423.646 134.826 423.391 135.446 422.937 135.904C422.483 136.361 421.867 136.619 421.225 136.619Z" fill="#3E3F3A"/>
<path opacity="0.1" d="M352.266 315.991C353.814 315.991 355.069 314.726 355.069 313.166C355.069 311.606 353.814 310.341 352.266 310.341C350.718 310.341 349.462 311.606 349.462 313.166C349.462 314.726 350.718 315.991 352.266 315.991Z" fill="black"/>
<path d="M352.521 302.467C354.539 302.467 356.176 300.818 356.176 298.784C356.176 296.749 354.539 295.1 352.521 295.1C350.502 295.1 348.865 296.749 348.865 298.784C348.865 300.818 350.502 302.467 352.521 302.467Z" fill="white"/>
<path d="M352.225 294.16C350.839 294.16 349.51 294.715 348.53 295.702C347.55 296.689 347 298.028 347 299.425C347 302.332 352.225 311.88 352.225 311.88C352.225 311.88 357.449 302.332 357.449 299.425C357.449 298.028 356.899 296.689 355.919 295.702C354.939 294.715 353.61 294.16 352.225 294.16ZM352.225 301.993C351.746 301.993 351.278 301.85 350.879 301.581C350.481 301.313 350.171 300.932 349.988 300.487C349.805 300.041 349.757 299.55 349.85 299.077C349.943 298.604 350.174 298.169 350.513 297.828C350.851 297.487 351.283 297.254 351.752 297.16C352.222 297.066 352.709 297.114 353.151 297.299C353.594 297.484 353.972 297.796 354.238 298.198C354.504 298.599 354.646 299.07 354.646 299.553C354.646 300.2 354.391 300.821 353.937 301.278C353.483 301.736 352.867 301.993 352.225 301.993Z" fill="#EFEFEF"/>
<path opacity="0.1" d="M257.266 340.192C258.814 340.192 260.069 338.927 260.069 337.367C260.069 335.807 258.814 334.542 257.266 334.542C255.718 334.542 254.462 335.807 254.462 337.367C254.462 338.927 255.718 340.192 257.266 340.192Z" fill="black"/>
<path d="M257.521 326.668C259.539 326.668 261.176 325.019 261.176 322.985C261.176 320.951 259.539 319.302 257.521 319.302C255.502 319.302 253.865 320.951 253.865 322.985C253.865 325.019 255.502 326.668 257.521 326.668Z" fill="white"/>
<path d="M257.225 318.361C255.839 318.361 254.51 318.916 253.53 319.903C252.55 320.89 252 322.229 252 323.626C252 326.533 257.225 336.081 257.225 336.081C257.225 336.081 262.449 326.533 262.449 323.626C262.449 322.229 261.899 320.89 260.919 319.903C259.939 318.916 258.61 318.361 257.225 318.361ZM257.225 326.194C256.746 326.194 256.278 326.051 255.879 325.783C255.481 325.515 255.171 325.133 254.988 324.688C254.805 324.242 254.757 323.751 254.85 323.278C254.943 322.805 255.174 322.37 255.513 322.029C255.851 321.688 256.283 321.455 256.752 321.361C257.222 321.267 257.709 321.315 258.151 321.5C258.594 321.685 258.972 321.997 259.238 322.399C259.504 322.8 259.646 323.272 259.646 323.754C259.646 324.401 259.391 325.022 258.937 325.479C258.483 325.937 257.867 326.194 257.225 326.194Z" fill="#3E3F3A"/>
<path opacity="0.1" d="M311.266 371.452C312.814 371.452 314.069 370.187 314.069 368.627C314.069 367.067 312.814 365.802 311.266 365.802C309.718 365.802 308.462 367.067 308.462 368.627C308.462 370.187 309.718 371.452 311.266 371.452Z" fill="black"/>
<path d="M311.521 357.928C313.539 357.928 315.176 356.279 315.176 354.245C315.176 352.21 313.539 350.561 311.521 350.561C309.502 350.561 307.865 352.21 307.865 354.245C307.865 356.279 309.502 357.928 311.521 357.928Z" fill="white"/>
<path d="M311.225 349.621C309.839 349.621 308.51 350.176 307.53 351.163C306.55 352.15 306 353.489 306 354.885C306 357.793 311.225 367.341 311.225 367.341C311.225 367.341 316.449 357.793 316.449 354.885C316.449 353.489 315.899 352.15 314.919 351.163C313.939 350.176 312.61 349.621 311.225 349.621ZM311.225 357.453C310.746 357.453 310.278 357.31 309.879 357.042C309.481 356.774 309.171 356.393 308.988 355.947C308.805 355.502 308.757 355.011 308.85 354.538C308.943 354.065 309.174 353.63 309.513 353.289C309.851 352.947 310.283 352.715 310.752 352.621C311.222 352.527 311.709 352.575 312.151 352.76C312.594 352.944 312.972 353.257 313.238 353.658C313.504 354.06 313.646 354.531 313.646 355.014C313.646 355.661 313.391 356.281 312.937 356.739C312.483 357.196 311.867 357.453 311.225 357.453Z" fill="#3E3F3A"/>
</svg>
