<svg width="834" height="554" viewBox="0 0 834 554" fill="none" xmlns="http://www.w3.org/2000/svg">
<g clip-path="url(#clip0_1034_547)">
<path d="M512.401 184.87C532.283 184.87 548.401 168.752 548.401 148.87C548.401 128.988 532.283 112.87 512.401 112.87C492.519 112.87 476.401 128.988 476.401 148.87C476.401 168.752 492.519 184.87 512.401 184.87Z" fill="#F2F2F2"/>
<path d="M298.401 112.87C314.97 112.87 328.401 99.4387 328.401 82.8701C328.401 66.3016 314.97 52.8701 298.401 52.8701C281.833 52.8701 268.401 66.3016 268.401 82.8701C268.401 99.4387 281.833 112.87 298.401 112.87Z" fill="#F2F2F2"/>
<path d="M200.401 396.87C216.97 396.87 230.401 383.439 230.401 366.87C230.401 350.302 216.97 336.87 200.401 336.87C183.833 336.87 170.401 350.302 170.401 366.87C170.401 383.439 183.833 396.87 200.401 396.87Z" fill="#F2F2F2"/>
<path d="M169.909 412.87C178.599 423.17 187.999 497.426 198.029 506.406L668.609 507.406C678.639 498.426 688.039 424.17 696.729 413.87L169.909 412.87Z" fill="#E6E6E6"/>
<path d="M316.599 325.646V428.206H388.449V325.646C388.45 324.908 388.215 324.19 387.777 323.596C387.34 323.002 386.724 322.564 386.019 322.346C385.687 322.236 385.339 322.182 384.989 322.186H320.069C319.614 322.185 319.163 322.274 318.742 322.447C318.322 322.621 317.939 322.875 317.617 323.197C317.295 323.518 317.039 323.9 316.864 324.32C316.69 324.74 316.599 325.191 316.599 325.646V325.646ZM344.639 360.886C344.658 358.864 345.474 356.932 346.911 355.509C348.347 354.086 350.287 353.288 352.309 353.288C354.331 353.288 356.271 354.086 357.707 355.509C359.143 356.932 359.96 358.864 359.979 360.886V372.786C359.969 374.813 359.156 376.754 357.719 378.184C356.281 379.614 354.336 380.417 352.309 380.417C350.282 380.417 348.337 379.614 346.899 378.184C345.462 376.754 344.649 374.813 344.639 372.786V360.886Z" fill="#3F3D56"/>
<path d="M203.569 171.126V358.386C203.571 360.772 204.52 363.06 206.207 364.748C207.894 366.435 210.183 367.384 212.569 367.386H490.069C492.455 367.384 494.743 366.435 496.431 364.748C498.118 363.06 499.067 360.772 499.069 358.386V171.126C499.063 168.741 498.113 166.457 496.426 164.772C494.739 163.087 492.453 162.139 490.069 162.136H212.569C210.185 162.139 207.899 163.087 206.212 164.772C204.525 166.457 203.575 168.741 203.569 171.126V171.126Z" fill="#3F3D56"/>
<path d="M210.079 173.456V356.076C210.081 357.351 210.589 358.573 211.49 359.474C212.392 360.376 213.614 360.884 214.889 360.886H487.759C489.034 360.884 490.256 360.376 491.158 359.474C492.059 358.573 492.567 357.351 492.569 356.076V173.456C492.569 172.179 492.062 170.955 491.161 170.051C490.259 169.148 489.035 168.639 487.759 168.636H214.889C213.612 168.639 212.389 169.148 211.487 170.051C210.586 170.955 210.079 172.179 210.079 173.456V173.456Z" fill="#3F3D56"/>
<path d="M265.719 439.086C265.997 439.434 266.35 439.715 266.752 439.907C267.153 440.099 267.594 440.198 268.039 440.196H430.379C430.823 440.195 431.261 440.096 431.662 439.905C432.063 439.713 432.416 439.435 432.695 439.09C432.975 438.746 433.174 438.343 433.279 437.911C433.383 437.48 433.39 437.03 433.299 436.596L430.779 424.626C430.674 424.138 430.45 423.683 430.125 423.304C429.8 422.925 429.385 422.634 428.919 422.456C428.581 422.323 428.222 422.256 427.859 422.256H270.549C270.186 422.256 269.827 422.323 269.489 422.456C269.023 422.634 268.608 422.925 268.283 423.304C267.958 423.683 267.733 424.138 267.629 424.626L265.109 436.596C265.019 437.03 265.028 437.479 265.133 437.91C265.239 438.34 265.439 438.742 265.719 439.086Z" fill="#3F3D56"/>
<path d="M223.662 193.792H478.986C479.251 193.787 479.504 193.677 479.689 193.487C479.875 193.297 479.979 193.043 479.979 192.777C479.979 192.512 479.875 192.257 479.689 192.067C479.504 191.877 479.251 191.768 478.986 191.762H223.662C223.397 191.768 223.144 191.877 222.959 192.067C222.773 192.257 222.669 192.512 222.669 192.777C222.669 193.043 222.773 193.297 222.959 193.487C223.144 193.677 223.397 193.787 223.662 193.792V193.792Z" fill="#3F3D56"/>
<path d="M461.605 186.578C464.892 186.578 467.556 183.854 467.556 180.495C467.556 177.135 464.892 174.412 461.605 174.412C458.319 174.412 455.655 177.135 455.655 180.495C455.655 183.854 458.319 186.578 461.605 186.578Z" fill="#3F3D56"/>
<path d="M441.049 186.578C444.336 186.578 447 183.854 447 180.495C447 177.135 444.336 174.412 441.049 174.412C437.763 174.412 435.099 177.135 435.099 180.495C435.099 183.854 437.763 186.578 441.049 186.578Z" fill="#3F3D56"/>
<path d="M420.493 186.578C423.78 186.578 426.444 183.854 426.444 180.495C426.444 177.135 423.78 174.412 420.493 174.412C417.207 174.412 414.543 177.135 414.543 180.495C414.543 183.854 417.207 186.578 420.493 186.578Z" fill="#3F3D56"/>
<path d="M234.95 177.026C234.95 177.17 234.977 177.312 235.032 177.445C235.086 177.578 235.166 177.699 235.267 177.802C235.369 177.904 235.489 177.985 235.622 178.041C235.754 178.096 235.897 178.125 236.04 178.126H250.64C250.929 178.119 251.203 178 251.405 177.793C251.607 177.587 251.72 177.309 251.72 177.021C251.72 176.732 251.607 176.455 251.405 176.248C251.203 176.042 250.929 175.922 250.64 175.916H236.04C235.749 175.919 235.471 176.038 235.266 176.246C235.062 176.454 234.949 176.734 234.95 177.026V177.026Z" fill="#3F3D56"/>
<path d="M234.95 181.176C234.95 181.319 234.977 181.462 235.032 181.595C235.086 181.728 235.166 181.849 235.267 181.952C235.369 182.054 235.489 182.135 235.622 182.19C235.754 182.246 235.897 182.275 236.04 182.276H250.64C250.929 182.269 251.204 182.15 251.406 181.944C251.608 181.737 251.721 181.46 251.721 181.171C251.721 180.882 251.608 180.604 251.406 180.398C251.204 180.191 250.929 180.072 250.64 180.066H236.04C235.749 180.069 235.471 180.188 235.266 180.396C235.062 180.604 234.949 180.884 234.95 181.176V181.176Z" fill="#3F3D56"/>
<path d="M234.95 185.316C234.949 185.607 235.062 185.888 235.266 186.096C235.471 186.304 235.749 186.422 236.04 186.426H250.64C250.929 186.419 251.203 186.3 251.405 186.093C251.607 185.887 251.72 185.61 251.72 185.321C251.72 185.032 251.607 184.755 251.405 184.548C251.203 184.342 250.929 184.223 250.64 184.216H236.04C235.897 184.216 235.754 184.245 235.622 184.301C235.489 184.357 235.369 184.438 235.267 184.54C235.166 184.642 235.086 184.763 235.032 184.896C234.977 185.029 234.95 185.172 234.95 185.316V185.316Z" fill="#3F3D56"/>
<path d="M795.943 392.196C795.923 392.146 795.913 392.106 795.893 392.066C795.507 391.026 795.056 390.011 794.543 389.026C791.633 383.556 794.713 375.156 791.433 365.876C786.133 350.836 779.673 341.966 770.203 334.016C769.923 333.776 769.643 333.546 769.353 333.306L769.343 333.296C763.023 328.106 755.403 323.256 745.943 317.216C743.973 315.956 737.163 319.596 737.323 313.356C737.503 306.426 737.693 299.246 734.293 294.766L734.073 294.476L733.723 294.386C722.066 292.081 710.176 291.164 698.303 291.656H698.293C693.252 291.844 688.246 292.578 683.363 293.846C683.003 293.946 682.643 294.046 682.293 294.166C682.023 294.236 681.753 294.326 681.483 294.416L681.263 294.496L681.093 294.656C677.803 297.946 677.043 303.846 676.683 309.996V310.006C676.613 311.126 676.553 312.246 676.503 313.366C676.223 319.346 661.793 324.176 656.293 326.886C645.963 331.986 647.521 343.87 647.401 343.87C647.401 343.87 630.033 379.526 629.823 415.636C629.813 417.646 629.8 419.666 629.783 421.696C629.663 438.516 629.343 455.626 628.083 471.216C627.533 477.916 626.823 484.326 625.873 490.316C621.253 519.486 600.323 495.266 590.313 514.676C590.642 516.585 591.196 518.448 591.963 520.226C593.113 520.906 594.293 521.566 595.463 522.226C600.653 525.116 605.94 527.813 611.323 530.316C611.623 530.456 611.923 530.596 612.223 530.726C622.097 535.295 632.275 539.178 642.683 542.346C644.713 542.966 646.743 543.556 648.793 544.116C666.927 549.122 685.599 551.919 704.403 552.446C704.479 552.438 704.556 552.434 704.633 552.436C726.872 551.821 748.965 548.637 770.473 542.946C770.773 542.866 771.073 542.786 771.373 542.706C772.783 542.326 774.183 541.946 775.583 541.546C787.961 538.024 800.088 533.675 811.883 528.526C811.895 528.966 811.939 529.403 812.013 529.836C812.023 529.978 812.043 530.118 812.073 530.256C812.093 530.096 812.113 529.936 812.123 529.776C812.183 529.306 812.233 528.826 812.283 528.346C818.403 468.666 805.693 417.996 795.943 392.196Z" fill="#CCCCCC"/>
<path d="M707.419 286.474C739.491 286.474 765.49 260.475 765.49 228.403C765.49 196.331 739.491 170.332 707.419 170.332C675.347 170.332 649.348 196.331 649.348 228.403C649.348 260.475 675.347 286.474 707.419 286.474Z" fill="#FFB6B6"/>
<path d="M711.718 287.52C720.571 285.938 729.274 283.602 737.73 280.539C746.032 277.097 762.612 259.157 766.342 249.579C769.113 242.462 769.746 232.068 769.791 224.602C769.883 214.716 767.898 204.921 763.964 195.851C760.03 186.781 754.235 178.638 746.954 171.95C744.104 169.114 740.54 167.102 736.64 166.125C736.3 166.063 735.952 166.017 735.604 165.987C730.13 165.631 724.886 163.647 720.547 160.29C719.699 159.605 718.803 158.982 717.866 158.426C713.193 155.822 707.971 154.36 702.626 154.16C693.943 153.559 682.427 158.078 668.4 167.597C661.353 172.38 652.714 172.829 645.973 172.686C645.597 172.686 645.227 172.785 644.901 172.973C644.575 173.161 644.303 173.431 644.114 173.756C641.866 176.876 638.52 179.028 634.749 179.782C632.457 180.333 630.656 184.007 628.537 188.752C628.057 189.829 627.496 191.086 627.067 191.867L626.74 190.59L625.713 192.286C624.099 194.952 623.186 197.983 623.059 201.097C622.932 204.211 623.594 207.306 624.986 210.095C626.377 212.884 628.451 215.275 631.015 217.047C633.58 218.818 636.55 219.912 639.651 220.226C642.097 220.391 644.553 220.307 646.982 219.974C648.463 219.821 649.994 219.663 651.486 219.633C656.3 219.679 661.02 220.973 665.186 223.388C669.351 225.803 672.819 229.257 675.251 233.412C675.821 234.371 676.604 235.186 677.54 235.794C678.475 236.402 679.538 236.787 680.646 236.919C681.754 237.052 682.877 236.928 683.929 236.557C684.982 236.186 685.935 235.578 686.715 234.78C687.989 233.318 689.599 232.185 691.406 231.479C693.214 230.772 695.165 230.514 697.094 230.725C698.836 231.293 700.33 232.442 701.325 233.98C702.501 235.681 704.157 236.992 706.082 237.748C712.529 239.627 715.54 252.929 715.609 264.494C715.675 275.641 713.181 284.2 709.544 285.307C706.744 286.16 706.456 286.426 706.348 286.972L706.251 287.461L706.655 287.821C708.345 288.086 710.071 287.983 711.718 287.52V287.52Z" fill="#2F2E41"/>
<path d="M506.191 467.056C517.31 467.056 526.323 464.179 526.323 460.631C526.323 457.082 517.31 454.206 506.191 454.206C495.072 454.206 486.059 457.082 486.059 460.631C486.059 464.179 495.072 467.056 506.191 467.056Z" fill="#3F3D56"/>
<path d="M506.191 462.773C517.31 462.773 526.323 459.896 526.323 456.347C526.323 452.799 517.31 449.922 506.191 449.922C495.072 449.922 486.059 452.799 486.059 456.347C486.059 459.896 495.072 462.773 506.191 462.773Z" fill="#3F3D56"/>
<path d="M502.651 460.653L505.651 460.608L504.824 404.59C504.703 395.449 506.983 386.437 511.434 378.453C515.886 370.469 522.354 363.792 530.193 359.09L587.452 324.864L585.913 322.288L528.654 356.515C520.363 361.489 513.523 368.55 508.815 376.993C504.107 385.437 501.696 394.968 501.824 404.635L502.651 460.653Z" fill="#3F3D56"/>
<path d="M578.684 342.835C578.684 346.857 581.944 350.117 585.966 350.117C589.987 350.117 593.248 346.857 593.248 342.835V297.43C593.248 293.409 589.987 290.149 585.966 290.149C581.944 290.149 578.684 293.409 578.684 297.43V342.835Z" fill="#3F3D56"/>
<path d="M490.737 384.553C491.405 386.996 492.6 389.262 494.239 391.194C495.878 393.125 497.92 394.673 500.222 395.729C502.524 396.786 505.029 397.325 507.562 397.308C510.094 397.291 512.593 396.719 514.88 395.633L558.063 439.512L564.745 408.226L522.713 371.354C520.633 367.631 517.26 364.801 513.233 363.4C509.205 361.999 504.804 362.123 500.863 363.75C496.921 365.377 493.713 368.393 491.847 372.227C489.981 376.061 489.586 380.447 490.737 384.553V384.553Z" fill="#FFB6B6"/>
<path d="M716.301 338.735L716.027 338.582L684.54 327.754C680.543 326.379 676.299 325.871 672.09 326.262C667.88 326.652 663.803 327.934 660.127 330.022C658.42 330.987 656.815 332.122 655.336 333.409L655.326 333.411C650.392 337.673 646.992 343.436 645.647 349.816L629.109 428.333L595.857 410.413L582.307 407.177L569.973 394.799L539.172 382.258L537.463 384.299L521.965 402.823L520.747 404.279L554.872 453.649L570.169 455.314L574.454 462.937L574.756 463.075L587.296 468.727L640.778 492.823L666.677 473.002L670.73 469.891C704.236 438.848 719.898 413.877 726.438 394.857C729.899 384.811 730.81 376.439 730.467 369.69C729.402 348.833 716.833 339.134 716.301 338.735Z" fill="#CCCCCC"/>
<path d="M745.901 357.87H730.901C720.592 357.87 710.384 359.901 700.86 363.846C691.336 367.791 682.683 373.573 675.393 380.862C668.104 388.152 662.322 396.805 658.377 406.329C654.432 415.853 652.401 426.061 652.401 436.37C638.408 453.674 639.265 475.403 652.401 500.79L609.406 482.865C606.469 481.647 603.169 481.644 600.231 482.856C597.292 484.068 594.954 486.397 593.731 489.332C592.507 492.266 592.498 495.566 593.706 498.507C594.913 501.448 597.238 503.789 600.171 505.017L652.401 526.792V530.846C652.401 536.953 654.827 542.809 659.145 547.127C663.462 551.444 669.318 553.87 675.425 553.87H801.377C807.484 553.87 813.34 551.444 817.658 547.127C821.975 542.809 824.401 536.953 824.401 530.846C833.739 496.589 839.584 463.366 824.401 436.37C824.401 415.551 816.131 395.584 801.409 380.862C786.687 366.141 766.721 357.87 745.901 357.87V357.87Z" fill="#3F3D56"/>
<path d="M78.6714 407.591C77.6994 407.595 76.7298 407.686 75.7741 407.864L59.8726 307.198L75.803 210.288C76.8053 204.191 75.4585 197.942 72.0342 192.799C68.61 187.657 63.3631 184.005 57.3518 182.579C51.3405 181.153 45.0122 182.059 39.6431 185.116C34.274 188.172 30.2637 193.151 28.421 199.048V199.048C22.4491 218.158 19.4939 238.082 19.6619 258.102L20.2175 324.193L62.6098 425.695C62.9804 428.791 64.2379 431.714 66.2309 434.113C68.2239 436.511 70.8676 438.283 73.8437 439.214C76.8198 440.146 80.0017 440.197 83.0064 439.362C86.0111 438.528 88.7107 436.843 90.7802 434.51C92.8498 432.177 94.2012 429.296 94.6718 426.214C95.1424 423.131 94.7122 419.978 93.4329 417.134C92.1537 414.29 90.0798 411.876 87.461 410.183C84.8422 408.49 81.7899 407.59 78.6714 407.591Z" fill="#FFB8B8"/>
<path d="M49.5489 175.81C39.3724 175.827 29.6175 179.877 22.4217 187.073C15.2258 194.269 11.1758 204.024 11.1589 214.2L18.9589 293L19.6589 300.06L20.0189 300.08L47.4089 301.44H47.4189L60.7089 302.1L62.9889 302.21L65.5989 293L87.9389 214.2C87.928 204.022 83.8799 194.263 76.6827 187.066C69.4856 179.869 59.7273 175.821 49.5489 175.81V175.81Z" fill="#E6E6E6"/>
<path d="M50.7289 554L38.1289 515.34C38.1289 515.34 15.0289 491.85 44.6589 429.49C45.3089 428.11 45.9889 426.72 46.6989 425.3C47.9389 422.81 49.2656 420.256 50.6789 417.64C52.8189 413.84 54.9889 409.91 57.4389 405.85L59.6789 406.25L61.7989 406.62L69.0489 407.9H69.0589L174.049 426.4C174.049 426.4 172.119 435.02 171.079 444.27C170.249 451.86 169.979 459.54 171.939 462.79C176.179 470.05 170.449 489.67 170.449 489.67C170.449 489.67 170.769 491.57 171.309 494.93V494.94C171.839 498.21 172.579 502.85 173.419 508.47C173.459 508.85 173.509 509.23 173.569 509.61C174.899 518.71 176.489 530.2 177.909 542.55C178.349 546.3 178.769 550.13 179.169 554L50.7289 554Z" fill="#2F2E41"/>
<path d="M20.8034 196.193C22.1008 192.615 24.2776 189.421 27.1333 186.905C29.9891 184.389 33.432 182.632 37.1449 181.796C42.6484 180.231 48.3763 179.605 54.0879 179.944C70.808 180.603 66.5922 143.144 83.1484 145.57C83.1484 145.57 98.7314 140.008 110.924 150.199C122 159.457 129.636 184.635 132.479 183.203C133.083 182.904 134.534 182.936 136.564 183.205C160.287 186.354 177.359 207.635 175.949 231.525L174.744 251.947C174.744 251.947 183.262 264.77 170.901 287.407L155.329 357C155.329 357 194.29 434.168 176.329 450C158.368 465.832 87.945 441.146 87.945 441.146C87.945 441.146 48.4534 428.938 40.1245 423.647C22.5313 412.47 45.017 386.985 58.9194 388.187C59.2861 386.733 59.2422 385.206 58.7927 383.776C58.3432 382.346 57.5057 381.068 56.3734 380.086C52.531 377.632 56.8362 372.077 57.1603 371.568C56.7898 371.938 53.8734 374.993 51.6514 368.558C49.4295 362.124 56.2807 354.022 56.2807 354.022L36.9304 312.359L21.7002 279.445L19.8483 275.649L23.0251 255.17L22.7279 254.555C15.9585 240.441 14.4603 224.372 18.5041 209.251C19.9711 203.69 21.0269 198.623 20.8034 196.193Z" fill="#E6E6E6"/>
<path d="M179.169 554H172.489C174.339 550.03 176.169 546.18 177.909 542.55C178.349 546.3 178.769 550.13 179.169 554Z" fill="#2F2E41"/>
<path d="M310.29 321.054C309.698 321.825 309.177 322.648 308.733 323.512L219.403 274.455L152.53 202.527C148.324 198.003 142.558 195.242 136.396 194.801C130.233 194.36 124.133 196.273 119.326 200.153C114.518 204.033 111.361 209.591 110.49 215.708C109.619 221.824 111.101 228.043 114.635 233.11L114.635 233.11C126.089 249.532 140.033 264.066 155.966 276.191L208.562 316.214L314.772 344.838C317.447 346.44 320.528 347.236 323.645 347.128C326.761 347.021 329.78 346.015 332.339 344.232C334.897 342.449 336.886 339.965 338.066 337.078C339.245 334.191 339.566 331.025 338.988 327.961C338.411 324.896 336.96 322.064 334.811 319.804C332.662 317.545 329.905 315.955 326.873 315.225C323.841 314.495 320.663 314.657 317.721 315.691C314.779 316.726 312.199 318.588 310.29 321.054V321.054Z" fill="#FFB8B8"/>
<path d="M189.374 301.609L215.892 270.676L217.37 268.947L163.052 195.336C160.704 193.508 158.147 191.966 155.434 190.743L155.427 190.736C146.861 186.843 137.162 186.232 128.175 189.019C119.187 191.807 111.537 197.798 106.677 205.856C101.817 213.914 100.086 223.476 101.814 232.726C103.541 241.976 108.607 250.269 116.047 256.03L131.9 265.971L189.137 301.881L189.374 301.609Z" fill="#E6E6E6"/>
<path d="M141.78 111.91C136.209 122.096 127.336 130.081 116.621 134.55C105.906 139.02 93.9879 139.707 82.8303 136.498C71.6726 133.29 61.9403 126.377 55.2362 116.899C48.5321 107.42 45.2558 95.9411 45.9471 84.3519C46.6383 72.7627 51.2558 61.7544 59.0391 53.14C66.8224 44.5256 77.3073 38.8187 88.7673 36.9593C100.227 35.0998 111.979 37.1986 122.086 42.91C132.194 48.6214 140.056 57.6048 144.376 68.3809C144.61 68.9656 144.82 69.5504 145.031 70.1585C147.473 76.9517 148.446 84.1858 147.886 91.3829C147.325 98.58 145.244 105.576 141.78 111.91Z" fill="#FFB6B6"/>
<path d="M149.124 70.1585C146.925 64.007 147.884 67.2114 145.662 61.0832C147.112 66.5097 144.82 69.5504 145.031 70.1585H84.1934V34.793C102.017 27.7292 119.442 21.718 129.967 34.793C139.347 34.7934 148.342 38.5196 154.974 45.1518C161.606 51.784 165.333 60.7792 165.333 70.1586L149.124 70.1585Z" fill="#2F2E41"/>
<path d="M127.558 168.466C127.512 167.812 127.441 167.133 127.348 166.478C126.53 161.674 125.205 156.969 123.395 152.444C121.641 147.509 119.863 142.55 118.085 137.615C120.375 146.574 119.676 156.035 116.097 164.56C105.829 156.561 112.308 138.27 98.8823 138.27C66.6042 138.27 33.3904 112.097 33.3904 79.7952C33.3904 47.5169 47.2372 23.3787 79.5153 23.3787C111.817 23.3787 138.014 38.161 138.645 70.4392C98.8823 79.7952 135.066 165.192 127.558 168.466Z" fill="#2F2E41"/>
<path d="M37.4239 74.8478C58.0925 74.8478 74.8478 58.0925 74.8478 37.4239C74.8478 16.7552 58.0925 0 37.4239 0C16.7552 0 0 16.7552 0 37.4239C0 58.0925 16.7552 74.8478 37.4239 74.8478Z" fill="#2F2E41"/>
<path d="M261.928 277.192C260.704 277.192 259.6 276.928 258.616 276.4C257.656 275.872 256.9 275.128 256.348 274.168C255.796 273.232 255.52 272.152 255.52 270.928C255.52 269.608 255.676 268.516 255.988 267.652C256.3 266.788 256.684 266.068 257.14 265.492C257.62 264.892 258.088 264.34 258.544 263.836C259.024 263.332 259.42 262.792 259.732 262.216C260.044 261.616 260.2 260.884 260.2 260.02V258.544H263.332V260.56C263.332 261.544 263.176 262.372 262.864 263.044C262.576 263.692 262.204 264.28 261.748 264.808C261.292 265.336 260.836 265.852 260.38 266.356C259.924 266.86 259.54 267.448 259.228 268.12C258.94 268.768 258.796 269.572 258.796 270.532C258.796 270.772 258.832 271.108 258.904 271.54C258.976 271.972 259.12 272.404 259.336 272.836C259.576 273.292 259.924 273.664 260.38 273.952C260.836 274.264 261.436 274.42 262.18 274.42C262.9 274.42 263.476 274.252 263.908 273.916C264.34 273.58 264.664 273.148 264.88 272.62C265.096 272.116 265.24 271.588 265.312 271.036C265.384 270.484 265.42 269.992 265.42 269.56C265.42 269.272 265.408 269.044 265.384 268.876C265.384 268.684 265.384 268.588 265.384 268.588H268.588C268.588 268.588 268.6 268.744 268.624 269.056C268.672 269.368 268.696 269.632 268.696 269.848C268.696 271.264 268.444 272.524 267.94 273.628C267.46 274.732 266.716 275.596 265.708 276.22C264.7 276.868 263.44 277.192 261.928 277.192ZM259.984 255.952V252.064H263.584V255.952H259.984ZM282.267 271.432C279.075 271.432 276.651 270.376 274.995 268.264C273.363 266.128 272.547 262.924 272.547 258.652C272.547 254.356 273.363 251.152 274.995 249.04C276.651 246.928 279.075 245.872 282.267 245.872C283.947 245.872 285.435 246.22 286.731 246.916C288.027 247.588 289.035 248.62 289.755 250.012C290.499 251.38 290.871 253.12 290.871 255.232H287.631C287.631 253.072 287.139 251.464 286.155 250.408C285.195 249.328 283.899 248.788 282.267 248.788C280.107 248.788 278.499 249.532 277.443 251.02C276.387 252.508 275.859 254.752 275.859 257.752V259.552C275.859 262.552 276.387 264.796 277.443 266.284C278.499 267.772 280.107 268.516 282.267 268.516C283.923 268.516 285.243 267.988 286.227 266.932C287.235 265.876 287.739 264.28 287.739 262.144H290.871C290.871 264.256 290.499 266.008 289.755 267.4C289.035 268.768 288.027 269.788 286.731 270.46C285.435 271.108 283.947 271.432 282.267 271.432ZM300.548 271.432C298.34 271.432 296.66 270.64 295.508 269.056C294.356 267.448 293.78 264.94 293.78 261.532C293.78 258.124 294.356 255.628 295.508 254.044C296.66 252.436 298.34 251.632 300.548 251.632C302.756 251.632 304.436 252.436 305.588 254.044C306.74 255.628 307.316 258.124 307.316 261.532C307.316 264.94 306.74 267.448 305.588 269.056C304.436 270.64 302.756 271.432 300.548 271.432ZM300.548 268.804C301.772 268.804 302.684 268.252 303.284 267.148C303.908 266.044 304.22 264.4 304.22 262.216V260.848C304.22 258.664 303.908 257.02 303.284 255.916C302.684 254.812 301.772 254.26 300.548 254.26C299.324 254.26 298.4 254.812 297.776 255.916C297.176 257.02 296.876 258.664 296.876 260.848V262.216C296.876 264.4 297.176 266.044 297.776 267.148C298.4 268.252 299.324 268.804 300.548 268.804ZM310.918 271V252.064H313.15L313.546 254.26H313.762C314.266 253.324 314.89 252.652 315.634 252.244C316.378 251.836 317.194 251.632 318.082 251.632C319.018 251.632 319.834 251.848 320.53 252.28C321.25 252.688 321.778 253.384 322.114 254.368C322.618 253.456 323.29 252.772 324.13 252.316C324.97 251.86 325.834 251.632 326.722 251.632C327.61 251.632 328.39 251.824 329.062 252.208C329.734 252.568 330.25 253.168 330.61 254.008C330.994 254.824 331.186 255.94 331.186 257.356V271H328.234V257.572C328.234 256.252 327.994 255.376 327.514 254.944C327.058 254.488 326.482 254.26 325.786 254.26C324.898 254.26 324.13 254.716 323.482 255.628C322.858 256.54 322.546 257.812 322.546 259.444V271H319.594V257.572C319.594 256.252 319.354 255.376 318.874 254.944C318.418 254.488 317.842 254.26 317.146 254.26C316.258 254.26 315.49 254.716 314.842 255.628C314.194 256.54 313.87 257.812 313.87 259.444V271H310.918ZM341.54 271.432C339.332 271.432 337.652 270.64 336.5 269.056C335.348 267.448 334.772 264.94 334.772 261.532C334.772 258.124 335.348 255.628 336.5 254.044C337.652 252.436 339.332 251.632 341.54 251.632C343.748 251.632 345.428 252.436 346.58 254.044C347.732 255.628 348.308 258.124 348.308 261.532C348.308 264.94 347.732 267.448 346.58 269.056C345.428 270.64 343.748 271.432 341.54 271.432ZM341.54 268.804C342.764 268.804 343.676 268.252 344.276 267.148C344.9 266.044 345.212 264.4 345.212 262.216V260.848C345.212 258.664 344.9 257.02 344.276 255.916C343.676 254.812 342.764 254.26 341.54 254.26C340.316 254.26 339.392 254.812 338.768 255.916C338.168 257.02 337.868 258.664 337.868 260.848V262.216C337.868 264.4 338.168 266.044 338.768 267.148C339.392 268.252 340.316 268.804 341.54 268.804ZM360.101 277.228V252.064H362.333L362.729 254.26H362.909C363.365 253.396 363.953 252.748 364.673 252.316C365.393 251.86 366.185 251.632 367.049 251.632C368.849 251.632 370.277 252.424 371.333 254.008C372.389 255.568 372.917 258.088 372.917 261.568C372.917 263.848 372.665 265.72 372.161 267.184C371.657 268.648 370.973 269.728 370.109 270.424C369.269 271.096 368.321 271.432 367.265 271.432C366.353 271.432 365.537 271.252 364.817 270.892C364.097 270.508 363.569 269.992 363.233 269.344H363.053V277.228H360.101ZM366.437 268.804C367.565 268.804 368.405 268.3 368.957 267.292C369.533 266.26 369.821 264.568 369.821 262.216V260.848C369.821 258.496 369.533 256.816 368.957 255.808C368.405 254.776 367.565 254.26 366.437 254.26C365.309 254.26 364.457 254.812 363.881 255.916C363.329 257.02 363.053 258.664 363.053 260.848V262.216C363.053 264.4 363.329 266.044 363.881 267.148C364.457 268.252 365.309 268.804 366.437 268.804ZM381.199 271.432C379.783 271.432 378.643 271.012 377.779 270.172C376.939 269.308 376.519 267.82 376.519 265.708V252.064H379.471V265.492C379.471 266.812 379.711 267.7 380.191 268.156C380.695 268.588 381.343 268.804 382.135 268.804C383.071 268.804 383.887 268.348 384.583 267.436C385.303 266.524 385.663 265.252 385.663 263.62V252.064H388.615V271H386.383L385.987 268.804H385.771C385.243 269.74 384.583 270.412 383.791 270.82C382.999 271.228 382.135 271.432 381.199 271.432ZM399.453 271.432C397.101 271.432 395.313 270.664 394.089 269.128C392.889 267.568 392.289 265.036 392.289 261.532C392.289 258.124 392.877 255.628 394.053 254.044C395.253 252.436 397.041 251.632 399.417 251.632C401.481 251.632 403.029 252.328 404.061 253.72C405.117 255.088 405.645 257.356 405.645 260.524V262.396H395.385C395.409 264.604 395.757 266.224 396.429 267.256C397.101 268.288 398.133 268.804 399.525 268.804C400.461 268.804 401.229 268.432 401.829 267.688C402.429 266.92 402.729 265.876 402.729 264.556H405.645C405.645 266.668 405.069 268.348 403.917 269.596C402.789 270.82 401.301 271.432 399.453 271.432ZM395.421 259.768H402.549C402.549 257.968 402.285 256.6 401.757 255.664C401.229 254.728 400.449 254.26 399.417 254.26C398.097 254.26 397.125 254.728 396.501 255.664C395.901 256.576 395.541 257.944 395.421 259.768ZM414.503 271.432C412.703 271.432 411.275 270.652 410.219 269.092C409.163 267.508 408.635 264.976 408.635 261.496C408.635 259.192 408.887 257.32 409.391 255.88C409.895 254.416 410.579 253.348 411.443 252.676C412.307 251.98 413.255 251.632 414.287 251.632C415.199 251.632 416.015 251.836 416.735 252.244C417.479 252.628 418.007 253.168 418.319 253.864H418.499V244.972H421.451V271H419.219L418.823 268.804H418.643C418.187 269.668 417.599 270.328 416.879 270.784C416.159 271.216 415.367 271.432 414.503 271.432ZM415.115 268.804C416.243 268.804 417.083 268.252 417.635 267.148C418.211 266.044 418.499 264.4 418.499 262.216V260.992C418.499 258.76 418.211 257.08 417.635 255.952C417.083 254.824 416.243 254.26 415.115 254.26C413.987 254.26 413.135 254.776 412.559 255.808C412.007 256.816 411.731 258.496 411.731 260.848V262.216C411.731 264.568 412.007 266.26 412.559 267.292C413.135 268.3 413.987 268.804 415.115 268.804ZM431.821 271.432C429.613 271.432 427.933 270.64 426.781 269.056C425.629 267.448 425.053 264.94 425.053 261.532C425.053 258.124 425.629 255.628 426.781 254.044C427.933 252.436 429.613 251.632 431.821 251.632C434.029 251.632 435.709 252.436 436.861 254.044C438.013 255.628 438.589 258.124 438.589 261.532C438.589 264.94 438.013 267.448 436.861 269.056C435.709 270.64 434.029 271.432 431.821 271.432ZM431.821 268.804C433.045 268.804 433.957 268.252 434.557 267.148C435.181 266.044 435.493 264.4 435.493 262.216V260.848C435.493 258.664 435.181 257.02 434.557 255.916C433.957 254.812 433.045 254.26 431.821 254.26C430.597 254.26 429.673 254.812 429.049 255.916C428.449 257.02 428.149 258.664 428.149 260.848V262.216C428.149 264.4 428.449 266.044 429.049 267.148C429.673 268.252 430.597 268.804 431.821 268.804ZM442.335 271V267.112H445.935V271H442.335ZM450.527 271V267.112H454.127V271H450.527ZM458.718 271V267.112H462.318V271H458.718Z" fill="white"/>
</g>
<defs>
<clipPath id="clip0_1034_547">
<rect width="833.723" height="554" fill="white"/>
</clipPath>
</defs>
</svg>
