<svg width="262" height="150" viewBox="0 0 262 150" fill="none" xmlns="http://www.w3.org/2000/svg">
<g clip-path="url(#clip0_129_130)">
<path d="M169.933 135.411H86.6854C84.7123 135.409 82.8206 134.625 81.4254 133.232C80.0302 131.839 79.2454 129.95 79.2432 127.98V7.43121C79.2454 5.46101 80.0302 3.57215 81.4254 2.17901C82.8206 0.785867 84.7123 0.00222466 86.6854 0H169.933C171.906 0.00222328 173.798 0.785867 175.193 2.17901C176.588 3.57215 177.373 5.46101 177.376 7.43121V127.98C177.373 129.95 176.588 131.839 175.193 133.232C173.798 134.625 171.906 135.409 169.933 135.411Z" fill="#3E3F3A"/>
<path d="M170.079 130.669H86.5383C85.9301 130.669 85.3469 130.427 84.9169 129.998C84.4868 129.568 84.2448 128.986 84.2441 128.379V7.03196C84.2448 6.42463 84.4868 5.84237 84.9169 5.41292C85.3469 4.98347 85.9301 4.7419 86.5383 4.74121H170.079C170.687 4.7419 171.271 4.98347 171.701 5.41292C172.131 5.84237 172.373 6.42463 172.373 7.03196V128.379C172.373 128.986 172.131 129.568 171.701 129.998C171.271 130.427 170.687 130.669 170.079 130.669Z" fill="white"/>
<path d="M127.992 2.90802C128.342 2.90802 128.626 2.62498 128.626 2.27585C128.626 1.92671 128.342 1.64368 127.992 1.64368C127.643 1.64368 127.359 1.92671 127.359 2.27585C127.359 2.62498 127.643 2.90802 127.992 2.90802Z" fill="white"/>
<path d="M127.55 97.4718H127.501C127.397 97.4717 127.298 97.4304 127.224 97.3571C127.151 97.2837 127.109 97.1842 127.109 97.0805V93.1674C127.109 93.0637 127.151 92.9642 127.224 92.8909C127.298 92.8175 127.397 92.7762 127.501 92.7761H127.55C127.654 92.7762 127.753 92.8175 127.827 92.8909C127.9 92.9642 127.941 93.0637 127.942 93.1674V97.0805C127.941 97.1842 127.9 97.2837 127.827 97.3571C127.753 97.4304 127.654 97.4717 127.55 97.4718Z" fill="#3F3D56"/>
<path d="M129.117 97.4718H129.069C128.965 97.4717 128.865 97.4304 128.792 97.3571C128.718 97.2837 128.677 97.1842 128.677 97.0805V93.1674C128.677 93.0637 128.718 92.9642 128.792 92.8909C128.865 92.8175 128.965 92.7762 129.069 92.7761H129.117C129.221 92.7762 129.321 92.8175 129.394 92.8909C129.467 92.9642 129.509 93.0637 129.509 93.1674V97.0805C129.509 97.1842 129.467 97.2837 129.394 97.3571C129.321 97.4304 129.221 97.4717 129.117 97.4718Z" fill="#3F3D56"/>
<path d="M94.9168 97.4348H94.8685C94.7646 97.4347 94.6649 97.3934 94.5915 97.3201C94.518 97.2467 94.4767 97.1472 94.4766 97.0435V93.1304C94.4767 93.0267 94.518 92.9272 94.5915 92.8539C94.6649 92.7805 94.7646 92.7392 94.8685 92.7391H94.9168C95.0207 92.7392 95.1203 92.7805 95.1938 92.8539C95.2673 92.9272 95.3086 93.0267 95.3087 93.1304V97.0435C95.3086 97.1472 95.2673 97.2467 95.1938 97.3201C95.1203 97.3934 95.0207 97.4347 94.9168 97.4348Z" fill="#3F3D56"/>
<path d="M97.245 97.4717C97.2073 97.4717 97.1703 97.4626 97.1369 97.4453C97.1035 97.4279 97.0748 97.4028 97.0532 97.372L95.6327 95.3571C95.5868 95.2917 95.562 95.2139 95.5615 95.1341C95.5611 95.0542 95.5851 94.9762 95.6302 94.9103L97.0518 92.8467C97.0802 92.8055 97.1211 92.7743 97.1685 92.7579C97.2159 92.7415 97.2673 92.7407 97.3152 92.7556C97.3631 92.7704 97.405 92.8002 97.4348 92.8405C97.4645 92.8808 97.4806 92.9296 97.4806 92.9797V97.2367C97.4807 97.2866 97.4649 97.3353 97.4353 97.3756C97.4058 97.4159 97.3641 97.4457 97.3164 97.4606C97.2933 97.4679 97.2692 97.4717 97.245 97.4717Z" fill="#3F3D56"/>
<path d="M161.31 97.0435V93.1304C161.31 93.0267 161.351 92.9272 161.425 92.8539C161.498 92.7805 161.598 92.7392 161.702 92.7391H161.75C161.854 92.7392 161.954 92.7805 162.027 92.8539C162.101 92.9272 162.142 93.0267 162.142 93.1304V97.0435C162.142 97.1472 162.101 97.2467 162.027 97.3201C161.954 97.3934 161.854 97.4347 161.75 97.4348H161.702C161.598 97.4347 161.498 97.3934 161.425 97.3201C161.351 97.2467 161.31 97.1472 161.31 97.0435Z" fill="#3F3D56"/>
<path d="M159.302 97.4606C159.254 97.4457 159.213 97.4159 159.183 97.3756C159.153 97.3353 159.138 97.2866 159.138 97.2367V92.9797C159.138 92.9296 159.154 92.8809 159.184 92.8405C159.213 92.8002 159.255 92.7704 159.303 92.7556C159.351 92.7407 159.402 92.7415 159.45 92.7579C159.497 92.7743 159.538 92.8055 159.567 92.8467L160.988 94.9103C161.033 94.9761 161.057 95.0542 161.057 95.1341C161.056 95.2139 161.031 95.2917 160.986 95.3571L159.565 97.372C159.544 97.4028 159.515 97.4279 159.481 97.4453C159.448 97.4626 159.411 97.4717 159.373 97.4717C159.349 97.4717 159.325 97.4679 159.302 97.4606Z" fill="#3F3D56"/>
<path d="M162.116 85.0435H94.6069V85.5652H162.116V85.0435Z" fill="#CBCBCB"/>
<path d="M140.327 85.0435H94.6069V85.5652H140.327V85.0435Z" fill="#F47C3C"/>
<path d="M140.327 87.1304C141.337 87.1304 142.156 86.3129 142.156 85.3044C142.156 84.2958 141.337 83.4783 140.327 83.4783C139.317 83.4783 138.498 84.2958 138.498 85.3044C138.498 86.3129 139.317 87.1304 140.327 87.1304Z" fill="#F47C3C"/>
<path d="M128.309 48.913C127.097 48.9116 125.935 48.4302 125.077 47.5743C124.22 46.7185 123.738 45.5581 123.737 44.3478V34.4347C123.737 33.224 124.219 32.0628 125.076 31.2066C125.933 30.3505 127.096 29.8695 128.309 29.8695C129.521 29.8695 130.684 30.3505 131.542 31.2066C132.399 32.0628 132.881 33.224 132.881 34.4347V44.3478C132.879 45.5581 132.397 46.7185 131.54 47.5743C130.683 48.4302 129.521 48.9116 128.309 48.913Z" fill="#F47C3C"/>
<path d="M128.309 52.6956C125.746 52.6927 123.289 51.6749 121.477 49.8654C119.665 48.0559 118.645 45.6025 118.643 43.0435C118.643 42.8359 118.725 42.6369 118.872 42.4901C119.019 42.3433 119.218 42.2609 119.426 42.2609C119.634 42.2609 119.834 42.3433 119.981 42.4901C120.128 42.6369 120.21 42.8359 120.21 43.0435C120.21 45.1883 121.063 47.2452 122.582 48.7618C124.101 50.2784 126.161 51.1304 128.309 51.1304C130.457 51.1304 132.517 50.2784 134.036 48.7618C135.555 47.2452 136.408 45.1883 136.408 43.0435C136.408 42.8359 136.491 42.6369 136.638 42.4901C136.785 42.3433 136.984 42.2609 137.192 42.2609C137.4 42.2609 137.599 42.3433 137.746 42.4901C137.893 42.6369 137.976 42.8359 137.976 43.0435C137.973 45.6025 136.953 48.0559 135.141 49.8654C133.329 51.6749 130.872 52.6927 128.309 52.6956Z" fill="#F47C3C"/>
<path d="M128.309 61.5653C128.101 61.5653 127.902 61.4828 127.755 61.336C127.608 61.1893 127.525 60.9902 127.525 60.7827V52.174C127.525 51.9664 127.608 51.7673 127.755 51.6206C127.902 51.4738 128.101 51.3914 128.309 51.3914C128.517 51.3914 128.716 51.4738 128.863 51.6206C129.01 51.7673 129.093 51.9664 129.093 52.174V60.7827C129.093 60.9902 129.01 61.1893 128.863 61.336C128.716 61.4828 128.517 61.5653 128.309 61.5653Z" fill="#F47C3C"/>
<path d="M126.481 33.3913C126.769 33.3913 127.003 33.1577 127.003 32.8695C127.003 32.5814 126.769 32.3478 126.481 32.3478C126.192 32.3478 125.958 32.5814 125.958 32.8695C125.958 33.1577 126.192 33.3913 126.481 33.3913Z" fill="white"/>
<path d="M126.481 38.3478C126.769 38.3478 127.003 38.1142 127.003 37.8261C127.003 37.5379 126.769 37.3043 126.481 37.3043C126.192 37.3043 125.958 37.5379 125.958 37.8261C125.958 38.1142 126.192 38.3478 126.481 38.3478Z" fill="white"/>
<path d="M130.138 35.2174C130.427 35.2174 130.661 34.9838 130.661 34.6957C130.661 34.4075 130.427 34.174 130.138 34.174C129.85 34.174 129.616 34.4075 129.616 34.6957C129.616 34.9838 129.85 35.2174 130.138 35.2174Z" fill="white"/>
<path d="M134.518 61.7053H122.101C121.893 61.7053 121.693 61.6229 121.546 61.4761C121.399 61.3294 121.317 61.1303 121.317 60.9227C121.317 60.7152 121.399 60.5161 121.546 60.3694C121.693 60.2226 121.893 60.1401 122.101 60.1401H134.518C134.725 60.1401 134.925 60.2226 135.072 60.3694C135.219 60.5161 135.301 60.7152 135.301 60.9227C135.301 61.1303 135.219 61.3294 135.072 61.4761C134.925 61.6229 134.725 61.7053 134.518 61.7053Z" fill="#F47C3C"/>
<path d="M212.426 117.712C212.131 117.496 211.828 117.295 211.52 117.104C211.334 116.984 211.144 116.872 210.953 116.763C210.927 116.747 210.901 116.731 210.874 116.716C209.917 116.174 208.912 115.723 207.87 115.37C206.86 115.026 205.82 114.776 204.764 114.623C204.747 114.62 204.731 114.617 204.714 114.616C204.429 114.574 204.142 114.54 203.852 114.516C203.651 114.496 203.447 114.48 203.243 114.472C202.982 114.454 202.721 114.443 202.454 114.441C202.376 114.438 202.295 114.438 202.214 114.438C201.36 114.438 200.508 114.5 199.664 114.623C199.478 114.65 199.293 114.678 199.11 114.71C198.987 114.733 198.867 114.757 198.747 114.78C198.248 114.882 197.758 115.003 197.276 115.143C197.056 115.208 196.84 115.276 196.623 115.349C196.33 115.445 196.043 115.55 195.758 115.664C195.505 115.761 195.256 115.868 195.011 115.977C192.988 116.888 191.155 118.171 189.608 119.76C188.997 120.384 188.433 121.053 187.923 121.761C187.68 122.097 187.449 122.443 187.231 122.799C186.827 123.448 186.467 124.124 186.154 124.821C185.515 126.238 185.068 127.734 184.827 129.269C184.684 130.176 184.612 131.094 184.613 132.013C184.613 132.18 184.615 132.347 184.621 132.511C184.723 136.32 186.071 139.99 188.459 142.962C188.714 143.285 188.984 143.598 189.263 143.901C189.543 144.203 189.833 144.498 190.133 144.78C190.502 145.13 190.883 145.458 191.277 145.774C193.7 147.699 196.59 148.95 199.654 149.401C202.717 149.851 205.846 149.485 208.722 148.338C209.119 148.182 209.508 148.012 209.887 147.824C209.605 147.516 209.337 147.196 209.082 146.864C208.703 147.042 208.319 147.203 207.925 147.35C205.2 148.361 202.255 148.63 199.392 148.129C196.528 147.628 193.85 146.375 191.633 144.498C191.288 144.206 190.951 143.898 190.632 143.577C190.274 143.22 189.932 142.847 189.611 142.458C189.334 142.127 189.067 141.783 188.819 141.428C186.706 138.441 185.659 134.832 185.845 131.18C186.032 127.528 187.44 124.044 189.846 121.286C189.992 121.117 190.141 120.952 190.292 120.793C190.603 120.467 190.925 120.151 191.259 119.851C192.831 118.436 194.662 117.338 196.652 116.619C196.67 116.611 196.691 116.606 196.709 116.598C196.772 116.575 196.837 116.554 196.902 116.53C197.523 116.318 198.155 116.143 198.796 116.006C199.029 115.957 199.264 115.912 199.499 115.873C199.504 115.873 199.507 115.87 199.512 115.87C200.176 115.762 200.846 115.693 201.519 115.664C201.749 115.654 201.981 115.649 202.214 115.649C202.501 115.649 202.791 115.657 203.076 115.675C203.28 115.683 203.486 115.698 203.687 115.717C203.865 115.732 204.043 115.75 204.218 115.774C206.253 116.021 208.223 116.651 210.023 117.631C210.487 117.882 210.939 118.157 211.376 118.453C211.726 118.69 212.068 118.941 212.398 119.202C212.737 118.954 213.09 118.719 213.45 118.5C213.119 118.223 212.776 117.957 212.426 117.712Z" fill="#3F3D56"/>
<path d="M204.647 91.4307L203.696 107.567H185.023C183.402 107.552 181.835 108.143 180.631 109.226C179.549 110.212 178.877 111.567 178.747 113.023L180.877 113.781C180.874 113.536 180.899 113.292 180.952 113.054C181.1 112.413 181.509 111.248 182.607 110.593C183.09 110.319 183.638 110.18 184.193 110.189H205.359L206.548 93.3417H213.676V91.4307H204.647Z" fill="#3F3D56"/>
<path d="M223.182 99.5061L223.177 99.6339L222.597 114.861L222.55 116.071C222.38 116.066 222.21 116.063 222.038 116.063C221.704 116.063 221.372 116.074 221.042 116.095C219.429 116.188 217.838 116.523 216.324 117.089C215.932 117.235 215.546 117.397 215.169 117.571C214.578 117.846 214.004 118.156 213.45 118.5C213.09 118.719 212.737 118.954 212.397 119.202C210.952 120.256 209.687 121.538 208.654 122.997C208.291 123.505 207.961 124.035 207.663 124.583L206.281 124.597L196.845 124.701L191.366 124.763H191.364L187.502 124.805L186.154 124.821H186.057L184.827 124.834L182.17 124.865L180.934 124.878L179.22 124.897L180.289 114.811L189.608 115.325L191.259 115.417L191.693 115.44L195.758 115.664L196.631 115.711L198.788 115.831L199.512 115.87L203.021 116.063L203.076 115.675L203.18 114.923L203.243 114.472L203.58 112.043L203.687 111.282L203.839 110.189V110.181L203.852 110.082L204.202 107.567L204.486 105.535L204.75 103.644V103.636L205.171 100.597L205.242 100.098L206.072 100.07L209.302 99.9653L210.728 99.9183L215.214 99.7696L221.471 99.5635H221.474L221.991 99.5453L222.114 99.5401H222.116L223.182 99.5061Z" fill="#2F2E41"/>
<path d="M222.038 135.657C223.826 135.657 225.275 134.21 225.275 132.425C225.275 130.64 223.826 129.193 222.038 129.193C220.25 129.193 218.801 130.64 218.801 132.425C218.801 134.21 220.25 135.657 222.038 135.657Z" fill="#3F3D56"/>
<path d="M200.468 134.722C201.697 134.722 202.693 133.727 202.693 132.5C202.693 131.273 201.697 130.278 200.468 130.278C199.239 130.278 198.243 131.273 198.243 132.5C198.243 133.727 199.239 134.722 200.468 134.722Z" fill="#3F3D56"/>
<path d="M215.527 116.1C215.133 116.254 214.744 116.426 214.362 116.611C213.694 116.937 213.047 117.304 212.426 117.712C212.066 117.944 211.716 118.191 211.376 118.453C209.725 119.711 208.308 121.249 207.191 122.997H208.654C209.687 121.538 210.952 120.256 212.398 119.202C212.737 118.954 213.09 118.719 213.45 118.5C214.004 118.156 214.578 117.846 215.17 117.571C215.546 117.397 215.932 117.235 216.324 117.089C217.838 116.523 219.429 116.188 221.043 116.095V114.879C219.15 114.984 217.287 115.396 215.527 116.1ZM205.921 125.369H207.256C207.384 125.103 207.52 124.839 207.664 124.584L206.282 124.597C206.153 124.85 206.033 125.108 205.921 125.369ZM223.182 114.89C222.989 114.874 222.793 114.866 222.597 114.861C222.412 114.853 222.226 114.85 222.038 114.85C221.704 114.85 221.372 114.861 221.043 114.879C219.15 114.984 217.287 115.396 215.527 116.1C215.133 116.254 214.744 116.426 214.362 116.611C213.694 116.937 213.047 117.304 212.426 117.712C212.066 117.944 211.716 118.191 211.376 118.453C209.232 120.087 207.49 122.188 206.282 124.597C206.153 124.85 206.033 125.108 205.921 125.369C205.534 126.242 205.221 127.146 204.986 128.071C204.83 128.671 204.708 129.279 204.62 129.892C204.541 130.43 204.488 130.973 204.461 131.523C204.445 131.823 204.437 132.123 204.437 132.425C204.437 133.091 204.475 133.757 204.549 134.418C204.901 137.499 206.066 140.431 207.925 142.915C208.178 143.254 208.445 143.585 208.722 143.904C210.617 146.096 213.025 147.786 215.732 148.825C218.439 149.863 221.361 150.217 224.239 149.856C227.116 149.495 229.86 148.429 232.225 146.753C234.59 145.077 236.504 142.844 237.796 140.251C239.088 137.659 239.718 134.788 239.631 131.893C239.544 128.999 238.741 126.171 237.295 123.661C235.848 121.151 233.803 119.037 231.341 117.506C228.879 115.976 226.076 115.077 223.182 114.89H223.182ZM222.038 148.787C219.747 148.788 217.481 148.308 215.388 147.378C213.294 146.448 211.42 145.089 209.887 143.39C209.605 143.082 209.337 142.762 209.082 142.43C206.976 139.724 205.779 136.424 205.662 132.999C205.655 132.809 205.652 132.618 205.652 132.425C205.649 129.983 206.198 127.571 207.256 125.369C207.384 125.103 207.52 124.839 207.664 124.584C207.961 124.035 208.292 123.505 208.654 122.997C209.687 121.538 210.952 120.256 212.398 119.202C212.737 118.954 213.09 118.719 213.45 118.5C214.004 118.156 214.578 117.846 215.17 117.571C215.546 117.397 215.932 117.235 216.324 117.089C217.838 116.523 219.429 116.188 221.043 116.095C221.372 116.074 221.704 116.063 222.038 116.063C222.211 116.063 222.38 116.066 222.55 116.071C222.762 116.079 222.973 116.09 223.182 116.103C227.419 116.398 231.376 118.325 234.218 121.476C237.06 124.628 238.565 128.758 238.417 132.997C238.269 137.235 236.478 141.25 233.422 144.196C230.367 147.142 226.285 148.788 222.038 148.787ZM205.662 132.999C205.655 132.809 205.652 132.618 205.652 132.425C205.649 129.983 206.198 127.571 207.256 125.369H205.921C205.534 126.242 205.221 127.146 204.986 128.071C205.026 128.241 205.046 128.414 205.046 128.588C205.046 129.057 204.897 129.514 204.62 129.892C204.542 130.43 204.488 130.973 204.461 131.523C204.445 131.823 204.437 132.123 204.437 132.425C204.437 133.091 204.475 133.757 204.549 134.418C204.901 137.499 206.066 140.431 207.925 142.915C208.319 142.769 208.703 142.607 209.082 142.43C206.976 139.724 205.779 136.424 205.662 132.999Z" fill="#3F3D56"/>
<path opacity="0.1" d="M211.982 107.793C212.134 107.793 212.257 107.67 212.257 107.519C212.257 107.367 212.134 107.244 211.982 107.244C211.83 107.244 211.707 107.367 211.707 107.519C211.707 107.67 211.83 107.793 211.982 107.793Z" fill="black"/>
<path opacity="0.1" d="M211.048 112.345C211.2 112.345 211.323 112.222 211.323 112.07C211.323 111.918 211.2 111.795 211.048 111.795C210.896 111.795 210.772 111.918 210.772 112.07C210.772 112.222 210.896 112.345 211.048 112.345Z" fill="black"/>
<path d="M176.111 140.873L173.631 140.873L172.451 131.321L176.112 131.321L176.111 140.873Z" fill="#FFB7B7"/>
<path d="M176.111 140.066L173.533 140.063H171.861C171.452 140.063 171.047 140.144 170.669 140.3C170.291 140.456 169.948 140.685 169.658 140.974C169.369 141.263 169.14 141.606 168.983 141.983C168.827 142.36 168.746 142.765 168.747 143.173V143.275H176.744V140.066H176.111Z" fill="#2F2E41"/>
<path d="M184.324 142.064L181.844 142.013L180.86 132.439L184.52 132.514L184.324 142.064Z" fill="#FFB7B7"/>
<path d="M184.341 141.256L181.76 141.204L180.09 141.17C179.681 141.16 179.275 141.232 178.894 141.38C178.513 141.528 178.165 141.75 177.869 142.032C177.574 142.315 177.338 142.653 177.174 143.027C177.01 143.401 176.921 143.803 176.913 144.211L176.911 144.313L184.908 144.477L184.921 143.817L184.973 141.269L184.341 141.256Z" fill="#2F2E41"/>
<path d="M192.962 107.845L178.633 112.564C177.782 112.774 177.008 113.22 176.401 113.852C175.795 114.485 175.381 115.276 175.207 116.134L170.878 137.577L177.818 137.685L182.204 119.664L191.673 115.796L184.417 119.989C183.762 120.507 183.255 121.189 182.947 121.965L178.677 137.879H186.331L190.681 125.153L209.558 114.408L192.962 107.845Z" fill="#2F2E41"/>
<path d="M207.417 85.4576L198.346 86.557C198.346 86.557 193.021 88.9419 193.021 90.154C193.021 91.366 190.901 108.739 190.901 108.739C190.901 108.739 189.016 109.901 196.379 111.946C203.743 113.991 205.065 116.814 205.065 116.814L205.625 119.172L214.061 116.213L215.477 96.0122L217.093 88.1462L211.633 85.1038L207.417 85.4576Z" fill="#CBCBCB"/>
<path d="M203.526 83.6977C207.107 83.6977 210.011 80.7987 210.011 77.2225C210.011 73.6463 207.107 70.7472 203.526 70.7472C199.944 70.7472 197.041 73.6463 197.041 77.2225C197.041 80.7987 199.944 83.6977 203.526 83.6977Z" fill="#FFB7B7"/>
<path d="M207.971 70.5751L208.1 69.8815L206.363 69.5596C206.363 69.5596 203.907 67.3104 201.089 68.9408C198.27 70.5711 197.035 71.4185 197.035 71.4185L195.735 72.6127L196.712 73.1526L195.477 74L196.519 74.1931L195.631 75.1049L197.094 78.0669C197.094 78.0669 197.368 75.4268 199.452 75.813C201.536 76.1993 204.483 73.8753 204.483 73.8753L208.984 78.6561C208.984 78.6561 209.022 76.5205 210.238 76.7409C210.238 76.7409 211.728 71.6301 207.971 70.5751Z" fill="#2F2E41"/>
<path d="M209.637 99.2767C209.857 98.9474 210.147 98.6704 210.486 98.4651C210.825 98.2597 211.205 98.1311 211.599 98.0883C211.993 98.0454 212.392 98.0894 212.767 98.217C213.143 98.3447 213.485 98.553 213.771 98.8272L222.357 94.4556L221.8 99.4252L213.732 102.815C213.239 103.264 212.598 103.517 211.931 103.525C211.263 103.534 210.616 103.298 210.111 102.862C209.606 102.426 209.279 101.82 209.192 101.159C209.105 100.498 209.263 99.8286 209.637 99.2767Z" fill="#FFB7B7"/>
<path d="M214.988 88.5263L217.094 88.1462L228.33 93.1643L229.095 98.0817L222.356 99.8504L218.83 95.3222L213.669 96.7523L210.622 92.1741L214.988 88.5263Z" fill="#CBCBCB"/>
<path d="M204.967 94.1571L204.707 105.527C204.7 105.819 204.932 106.061 205.225 106.068L210.054 106.178C210.347 106.185 210.59 105.953 210.597 105.661L210.857 94.2916C210.864 93.9993 210.632 93.757 210.339 93.7503L205.509 93.64C205.217 93.6333 204.974 93.8649 204.967 94.1571Z" fill="#3F3D56"/>
<path d="M207.924 98.2793C208.435 98.2793 208.85 97.8652 208.85 97.3544C208.85 96.8436 208.435 96.4296 207.924 96.4296C207.412 96.4296 206.998 96.8436 206.998 97.3544C206.998 97.8652 207.412 98.2793 207.924 98.2793Z" fill="white"/>
<path d="M205.139 100.581C204.793 100.428 204.418 100.354 204.039 100.362C203.661 100.37 203.29 100.461 202.95 100.628C202.611 100.795 202.313 101.034 202.076 101.329C201.84 101.623 201.671 101.966 201.581 102.333L192.428 103.205L195.425 106.92L203.658 105.523C204.285 105.632 204.931 105.508 205.472 105.173C206.014 104.839 206.414 104.318 206.597 103.709C206.779 103.1 206.732 102.445 206.463 101.868C206.194 101.292 205.723 100.834 205.139 100.581Z" fill="#FFB7B7"/>
<path d="M195.833 91.884L195.354 100.78L197.153 101.348L196.38 107.55L191.762 108.247L193.689 92.1908L195.833 91.884Z" fill="#CBCBCB"/>
<path d="M222.469 91.4296L222.289 94.4896L222.218 95.6843V95.7L221.999 99.3913L221.991 99.5452L221.518 107.567H202.778C201.18 107.567 199.639 108.158 198.452 109.226C198.257 109.404 198.073 109.595 197.903 109.797C197.797 109.923 197.698 110.053 197.605 110.189C197.486 110.355 197.376 110.529 197.276 110.708C197.042 111.13 196.862 111.581 196.741 112.049C196.727 112.086 196.717 112.125 196.709 112.163C196.639 112.446 196.591 112.734 196.566 113.024L196.623 115.349L196.631 115.711L196.652 116.619L196.772 121.685L196.845 124.701L196.913 127.542C195.196 127.5 192.247 128.408 190.541 134.491C190.165 135.832 189.862 137.003 189.611 138.023C189.483 138.543 189.367 139.023 189.263 139.466C189.088 140.223 188.945 140.872 188.819 141.428C188.681 142.054 188.566 142.557 188.459 142.962C188.085 144.334 187.787 144.509 186.844 144.154C186.215 143.982 185.571 143.869 184.921 143.817C182.985 143.588 179.989 143.377 177.102 143.207C176.982 143.202 176.864 143.194 176.744 143.186C172.624 142.946 168.833 142.795 168.833 142.795V145.163L186.844 146.781C186.844 146.781 188.702 147.613 190.133 144.78C190.329 144.392 190.496 143.99 190.632 143.577C190.724 143.319 190.81 143.04 190.891 142.74C191.019 142.276 191.148 141.809 191.278 141.339C191.395 140.914 191.515 140.486 191.633 140.063C192.409 137.277 193.156 134.661 193.595 133.156C193.762 132.547 194.061 131.982 194.471 131.502C194.881 131.021 195.392 130.636 195.967 130.375C196.369 130.186 196.809 130.091 197.253 130.096L199.379 130.002L199.165 125.369H207.256C207.384 125.103 207.52 124.839 207.664 124.583C207.961 124.035 208.292 123.505 208.654 122.997H199.074L198.972 120.433L198.797 116.006L198.789 115.831L198.747 114.78L198.708 113.781C198.702 113.534 198.727 113.287 198.781 113.045C198.802 112.954 198.828 112.85 198.862 112.74C198.996 112.272 199.212 111.831 199.499 111.438C199.703 111.161 199.949 110.918 200.228 110.718C200.295 110.67 200.364 110.626 200.435 110.585C200.842 110.355 201.295 110.219 201.762 110.189C201.847 110.181 201.933 110.178 202.018 110.181H221.043V116.095C221.372 116.074 221.704 116.063 222.038 116.063C222.211 116.063 222.38 116.066 222.55 116.071C222.762 116.079 222.974 116.09 223.182 116.103V110.123L223.935 99.4356L224.366 93.3339H231.496L231.498 91.4296H222.469Z" fill="#3F3D56"/>
<path d="M49.3014 98.2393C49.6687 98.0568 49.9915 97.7961 50.247 97.4755C50.5025 97.1549 50.6845 96.7823 50.7802 96.3839C50.8759 95.9855 50.8829 95.571 50.8008 95.1696C50.7187 94.7682 50.5495 94.3896 50.305 94.0606L52.4037 73.5719H47.8682L46.2004 93.5781C45.674 94.0248 45.33 94.6488 45.2337 95.3318C45.1373 96.0148 45.2952 96.7095 45.6774 97.284C46.0596 97.8586 46.6397 98.2732 47.3076 98.4492C47.9755 98.6253 48.6849 98.5506 49.3014 98.2393V98.2393Z" fill="#9F616A"/>
<path d="M53.4656 62.2645C57.0095 62.2645 59.8824 59.3959 59.8824 55.8573C59.8824 52.3187 57.0095 49.4501 53.4656 49.4501C49.9217 49.4501 47.0488 52.3187 47.0488 55.8573C47.0488 59.3959 49.9217 62.2645 53.4656 62.2645Z" fill="#9F616A"/>
<path d="M54.674 85.5038C54.4171 85.5037 54.1674 85.4195 53.9631 85.264C53.7588 85.1086 53.6112 84.8905 53.543 84.6432C53.0289 82.7782 51.6913 79.6248 49.5676 75.2703C49.0884 74.2859 48.823 73.2115 48.7889 72.1176C48.7548 71.0236 48.9527 69.9349 49.3697 68.9227C49.7866 67.9105 50.4132 66.9977 51.2083 66.2443C52.0033 65.4909 52.949 64.9139 53.9831 64.551C54.9631 64.2055 56.0025 64.0598 57.0399 64.1224C58.0773 64.1851 59.0916 64.4548 60.0228 64.9158C60.9539 65.3767 61.783 66.0194 62.4611 66.8059C63.1391 67.5924 63.6522 68.5067 63.9702 69.4947C65.6163 74.6479 65.5368 80.1679 65.4262 82.3018C65.4125 82.5588 65.3148 82.8042 65.148 83.0004C64.9812 83.1967 64.7547 83.3329 64.5029 83.3883L54.9261 85.4765C54.8433 85.4947 54.7588 85.5039 54.674 85.5038Z" fill="#F47C3C"/>
<path d="M63.9473 146.346H67.1503L68.674 134.01H63.9468L63.9473 146.346Z" fill="#9F616A"/>
<path d="M63.1306 149.446L63.1304 145.302L69.4382 145.302C70.5043 145.301 71.5268 145.724 72.2807 146.477C73.0346 147.23 73.4582 148.251 73.4583 149.315V149.446L63.1306 149.446Z" fill="#2F2E41"/>
<path d="M31.9199 142.201L34.7266 143.742L42.0144 133.665L37.8719 131.391L31.9199 142.201Z" fill="#9F616A"/>
<path d="M38.7582 149.493L29.708 144.525L31.7077 140.893L37.2351 143.928C38.1685 144.441 38.8596 145.304 39.157 146.326C39.4543 147.348 39.3335 148.446 38.8211 149.379L38.7582 149.493Z" fill="#2F2E41"/>
<path d="M63.7983 139.499C63.5129 139.499 63.2373 139.395 63.023 139.207C62.8087 139.018 62.6702 138.759 62.6335 138.476L58.6279 107.655C58.6102 107.518 58.5498 107.391 58.4553 107.291C58.3608 107.191 58.2371 107.124 58.1019 107.098C57.9666 107.072 57.8267 107.09 57.7021 107.148C57.5775 107.207 57.4747 107.303 57.4082 107.424L40.7141 137.667C40.5764 137.913 40.3545 138.103 40.0887 138.2C39.823 138.298 39.5311 138.296 39.266 138.197L35.6272 136.813C35.4809 136.757 35.3471 136.673 35.2339 136.565C35.1206 136.457 35.0301 136.327 34.9676 136.184C34.9052 136.041 34.872 135.886 34.8702 135.73C34.8684 135.573 34.8978 135.418 34.9569 135.273L46.5213 106.907C46.5505 106.835 46.5704 106.759 46.5803 106.682C48.1467 94.5771 52.1319 88.4212 53.316 86.8229C53.4025 86.7054 53.4594 86.5689 53.482 86.4248C53.5045 86.2808 53.492 86.1334 53.4456 85.9952L53.2828 85.5076C53.2178 85.3141 53.2044 85.1069 53.2441 84.9067C53.2838 84.7064 53.3751 84.52 53.509 84.3658C57.7757 79.5132 65.2124 82.1611 65.287 82.1884L65.3243 82.2021L65.3476 82.234C73.6863 93.6529 70.6032 130.741 69.9005 138.06C69.8743 138.335 69.7514 138.592 69.5538 138.785C69.3561 138.979 69.0964 139.096 68.8204 139.117L63.8896 139.496C63.859 139.498 63.8285 139.499 63.7983 139.499Z" fill="#2F2E41"/>
<path d="M78.4118 63.3C78.3797 63.4407 78.3588 63.5838 78.3492 63.7278L67.1263 70.1927L64.3983 68.6246L61.4902 72.4261L66.0493 75.6707C66.4176 75.9328 66.8611 76.0685 67.3133 76.0575C67.7654 76.0465 68.2018 75.8894 68.5569 75.6096L80.1297 66.4934C80.652 66.6864 81.2208 66.7161 81.7604 66.5785C82.2999 66.4409 82.7848 66.1425 83.1504 65.7231C83.516 65.3036 83.7451 64.7829 83.8071 64.2303C83.8692 63.6777 83.7612 63.1193 83.4977 62.6294C83.2342 62.1395 82.8275 61.7414 82.3318 61.4879C81.8361 61.2344 81.2749 61.1377 80.7228 61.2105C80.1706 61.2832 79.6538 61.5222 79.241 61.8954C78.8282 62.2687 78.5389 62.7586 78.4118 63.3H78.4118Z" fill="#9F616A"/>
<path d="M66.7508 70.4988L63.1235 75.1929C63.0203 75.3265 62.8895 75.4363 62.74 75.5148C62.5905 75.5933 62.4257 75.6388 62.257 75.648C62.0883 75.6572 61.9197 75.63 61.7624 75.5683C61.6052 75.5065 61.4632 75.4117 61.346 75.2902L57.2397 71.0325C56.5574 70.5016 56.114 69.7222 56.0067 68.8653C55.8994 68.0083 56.137 67.1438 56.6673 66.4616C57.1977 65.7794 57.9775 65.3352 58.8355 65.2265C59.6935 65.1178 60.5597 65.3535 61.2439 65.8818L66.3941 68.7573C66.5415 68.8397 66.6694 68.9528 66.7691 69.089C66.8688 69.2252 66.9379 69.3812 66.9718 69.5465C67.0056 69.7118 67.0034 69.8824 66.9653 70.0467C66.9272 70.2111 66.854 70.3653 66.7508 70.4988L66.7508 70.4988Z" fill="#F47C3C"/>
<path d="M52.6923 78.6542L46.8491 77.6007C46.6828 77.5707 46.525 77.5053 46.3863 77.4089C46.2477 77.3126 46.1314 77.1875 46.0456 77.0422C45.9597 76.8969 45.9062 76.7349 45.8887 76.5671C45.8711 76.3993 45.8901 76.2297 45.9441 76.0699L47.8384 70.4697C47.9967 69.6212 48.4856 68.87 49.1979 68.3808C49.9101 67.8917 50.7875 67.7045 51.6378 67.8604C52.488 68.0162 53.2416 68.5024 53.7334 69.2123C54.2252 69.9221 54.4149 70.7978 54.2611 71.6472L54.0763 77.5361C54.071 77.7047 54.0293 77.8702 53.9541 78.0213C53.8789 78.1724 53.7721 78.3055 53.6407 78.4116C53.5094 78.5177 53.3567 78.5943 53.193 78.6362C53.0294 78.6781 52.8586 78.6842 52.6923 78.6542Z" fill="#F47C3C"/>
<path d="M54.4814 54.3835C56.1307 55.5106 58.2962 56.6692 59.9807 55.4689C61.0867 54.6808 61.4352 53.2214 60.9866 51.9407C60.1801 49.6376 57.964 48.6236 55.845 47.8464C53.0901 46.8361 50.0906 46.0323 47.2467 46.7559C44.4028 47.4794 41.8894 50.2288 42.4028 53.114C42.8156 55.4342 45.0075 57.3649 44.6964 59.7009C44.3832 62.0518 41.7353 63.2894 39.3976 63.7095C37.06 64.1297 34.4441 64.2647 32.7641 65.9413C30.621 68.0801 31.1562 71.903 33.1728 74.1612C35.1893 76.4194 38.2325 77.443 41.1813 78.1388C45.0883 79.0608 49.314 79.5453 53.0247 78.0152C56.7354 76.4851 59.6229 72.3663 58.548 68.504C58.094 66.8726 57.0244 65.4938 55.9907 64.1515C54.957 62.8092 53.9103 61.4056 53.516 59.7588C53.1874 58.3864 53.4306 56.793 54.342 55.7636C54.5078 55.5834 54.6121 55.3554 54.64 55.1123C54.6679 54.8692 54.6179 54.6236 54.4973 54.4106L54.4814 54.3835Z" fill="#2F2E41"/>
<path d="M99.8007 150H0.261258C0.191968 150 0.125516 149.973 0.0765206 149.924C0.0275251 149.875 0 149.808 0 149.739C0 149.67 0.0275251 149.604 0.0765206 149.555C0.125516 149.506 0.191968 149.478 0.261258 149.478H99.8007C99.8699 149.478 99.9364 149.506 99.9854 149.555C100.034 149.604 100.062 149.67 100.062 149.739C100.062 149.808 100.034 149.875 99.9854 149.924C99.9364 149.973 99.8699 150 99.8007 150Z" fill="#CBCBCB"/>
<path d="M260.997 150H161.458C161.388 150 161.322 149.973 161.273 149.924C161.224 149.875 161.196 149.808 161.196 149.739C161.196 149.67 161.224 149.604 161.273 149.555C161.322 149.506 161.388 149.478 161.458 149.478H260.997C261.066 149.478 261.133 149.506 261.182 149.555C261.231 149.604 261.258 149.67 261.258 149.739C261.258 149.808 261.231 149.875 261.182 149.924C261.133 149.973 261.066 150 260.997 150Z" fill="#CBCBCB"/>
</g>
<defs>
<clipPath id="clip0_129_130">
<rect width="261.258" height="150" fill="white"/>
</clipPath>
</defs>
</svg>
