<svg width="190" height="150" viewBox="0 0 190 150" fill="none" xmlns="http://www.w3.org/2000/svg">
<path d="M89.2434 150C130.685 150 164.28 148.378 164.28 146.377C164.28 144.376 130.685 142.754 89.2434 142.754C47.8017 142.754 14.2065 144.376 14.2065 146.377C14.2065 148.378 47.8017 150 89.2434 150Z" fill="#F2F2F2"/>
<path d="M133.083 34.8125H132.231V12.7622C132.231 9.37743 130.807 6.13132 128.272 3.73796C125.738 1.34459 122.3 3.737e-06 118.715 0H69.2407C65.6561 -6.40623e-06 62.2184 1.34456 59.6837 3.73792C57.1491 6.13128 55.7251 9.37738 55.7251 12.7621V133.732C55.7251 137.117 57.1491 140.363 59.6837 142.756C62.2184 145.15 65.6561 146.494 69.2406 146.494H118.715C122.3 146.494 125.738 145.15 128.272 142.756C130.807 140.363 132.231 137.117 132.231 133.732V50.5083H133.083L133.083 34.8125Z" fill="#3E3F3A"/>
<path d="M129.355 12.8513V133.643C129.354 136.171 128.291 138.595 126.398 140.383C124.505 142.17 121.938 143.174 119.261 143.174H69.5488C66.8718 143.174 64.3044 142.17 62.4115 140.383C60.5186 138.595 59.4551 136.171 59.4551 133.643V12.8513C59.4551 10.3235 60.5186 7.89924 62.4115 6.11183C64.3045 4.32442 66.8718 3.32024 69.5488 3.32019H75.5795C75.2832 4.00779 75.1703 4.75362 75.2509 5.49206C75.3314 6.23051 75.6029 6.93895 76.0415 7.55506C76.4801 8.17117 77.0723 8.67608 77.766 9.02536C78.4597 9.37465 79.2337 9.55761 80.0199 9.55816H108.363C109.15 9.55761 109.924 9.37464 110.617 9.02535C111.311 8.67606 111.903 8.17116 112.342 7.55505C112.78 6.93894 113.052 6.2305 113.132 5.49206C113.213 4.75361 113.1 4.00779 112.804 3.32019H119.261C121.938 3.32024 124.505 4.32442 126.398 6.11183C128.291 7.89924 129.354 10.3235 129.355 12.8513Z" fill="white"/>
<path d="M113.34 64.9362C113.009 65.0992 112.673 65.2535 112.331 65.3991C112.02 65.532 111.704 65.6568 111.383 65.7735C111.265 65.8158 111.146 65.8581 111.027 65.9003C110.083 66.2236 109.113 66.476 108.128 66.6552C107.639 66.7457 107.145 66.8169 106.644 66.8685C106.23 66.9128 105.812 66.9444 105.39 66.9631C105.09 66.9772 104.789 66.9833 104.487 66.9833C103.288 66.9837 102.092 66.8779 100.914 66.6672C100.607 66.6149 100.306 66.5525 100.006 66.4841C98.5517 66.1551 97.1442 65.6645 95.8125 65.0227C95.6931 64.9663 95.5737 64.906 95.4543 64.8476C95.2774 64.759 95.1048 64.6664 94.9321 64.5698C95.0152 64.4611 95.1048 64.3544 95.1964 64.2498C96.1939 63.0825 97.4407 62.1268 98.8555 61.445C100.27 60.7632 101.821 60.3706 103.408 60.2927C104.994 60.2149 106.58 60.4535 108.062 60.9931C109.544 61.5327 110.889 62.3612 112.009 63.4245C112.398 63.7929 112.759 64.1871 113.088 64.604C113.175 64.7127 113.259 64.8234 113.34 64.9362Z" fill="#F47C3C"/>
<path d="M104.912 56.0941C110.081 56.0941 114.272 52.1369 114.272 47.2555C114.272 42.3741 110.081 38.417 104.912 38.417C99.7421 38.417 95.5513 42.3741 95.5513 47.2555C95.5513 52.1369 99.7421 56.0941 104.912 56.0941Z" fill="#2F2E41"/>
<path d="M107.401 56.1065C110.777 54.3639 112.018 50.3669 110.172 47.179C108.326 43.9911 104.094 42.8195 100.717 44.5622C97.3413 46.3048 96.1006 50.3018 97.9461 53.4897C99.7916 56.6776 104.025 57.8492 107.401 56.1065Z" fill="#A0616A"/>
<path d="M111.38 46.1966C109.788 47.2327 107.898 47.7841 105.965 47.7768C106.654 48.2284 107.44 48.5334 108.266 48.6709C105.695 49.1916 103.039 49.2056 100.462 48.7123C99.8891 48.6255 99.3365 48.4463 98.8282 48.1824C98.5748 48.0488 98.3541 47.8664 98.1804 47.647C98.0067 47.4276 97.8838 47.1761 97.8197 46.9089C97.6485 45.9853 98.4107 45.1462 99.2028 44.5806C100.416 43.7279 101.814 43.1405 103.297 42.8607C104.779 42.5809 106.309 42.6159 107.776 42.963C108.734 43.1967 109.693 43.5916 110.315 44.3178C110.937 45.0441 111.121 46.1636 110.529 46.9115L111.38 46.1966Z" fill="#2F2E41"/>
<path d="M104.486 30.7511C100.302 30.7505 96.2326 32.0417 92.8978 34.4279C89.563 36.8141 87.1459 40.1644 86.0149 43.9682C84.8839 47.772 85.101 51.8207 86.6331 55.4972C88.1652 59.1737 90.9284 62.2763 94.5014 64.3323L94.625 64.4007C94.7273 64.4591 94.8297 64.5154 94.932 64.5698C95.1047 64.6664 95.2772 64.759 95.4542 64.8476C95.5736 64.9059 95.693 64.9663 95.8124 65.0227C97.144 65.6645 98.5515 66.155 100.005 66.484C100.306 66.5525 100.607 66.6149 100.914 66.6672C102.091 66.8779 103.288 66.9837 104.486 66.9832C104.789 66.9832 105.09 66.9772 105.39 66.9631C105.812 66.945 106.23 66.9135 106.644 66.8685C107.145 66.8162 107.639 66.745 108.127 66.6551C109.113 66.4759 110.083 66.2235 111.027 65.9003C111.146 65.858 111.265 65.8158 111.383 65.7735C111.704 65.6567 112.021 65.5319 112.331 65.3991C112.672 65.2542 113.008 65.0998 113.339 64.9361C116.658 63.2951 119.401 60.7799 121.235 57.6957C121.244 57.6796 121.255 57.6635 121.263 57.6474C122.242 55.9891 122.936 54.1948 123.32 52.3314C123.859 49.708 123.778 47.0046 123.081 44.4146C122.384 41.8245 121.09 39.412 119.29 37.3498C117.49 35.2875 115.23 33.6265 112.67 32.4857C110.111 31.345 107.316 30.7526 104.486 30.7511H104.486ZM120.913 57.4119C120.896 57.4401 120.882 57.4683 120.864 57.4944C119.067 60.5331 116.362 63.0055 113.088 64.604C112.762 64.765 112.43 64.916 112.092 65.0569C111.813 65.1757 111.527 65.2884 111.24 65.3931C111.118 65.4373 110.995 65.4816 110.871 65.5219C110.055 65.8031 109.22 66.0291 108.37 66.1982C107.74 66.3249 107.103 66.4196 106.462 66.482C106.068 66.5223 105.667 66.5505 105.264 66.5646C105.006 66.5746 104.746 66.5807 104.486 66.5807C103.326 66.582 102.169 66.4802 101.029 66.2767C100.335 66.1559 99.6498 65.9973 98.9758 65.8017C97.9491 65.5022 96.9514 65.1203 95.9936 64.6604C95.8827 64.606 95.7719 64.5517 95.6631 64.4953C95.5075 64.4168 95.3498 64.3363 95.1962 64.2497C95.0811 64.1893 94.966 64.1249 94.8531 64.0605C94.787 64.0243 94.7209 63.986 94.6548 63.9478C91.5221 62.1312 89.0232 59.4861 87.4681 56.3407C85.9129 53.1953 85.37 49.688 85.9067 46.2539C86.4433 42.8198 88.0359 39.61 90.4869 37.0228C92.9378 34.4355 96.1393 32.5847 99.6941 31.6999C103.249 30.8151 107.001 30.9353 110.484 32.0455C113.967 33.1557 117.028 35.2071 119.288 37.9452C121.548 40.6833 122.906 43.9876 123.195 47.4482C123.484 50.9087 122.691 54.3732 120.913 57.4119H120.913Z" fill="#3F3D56"/>
<path d="M100.171 38.5389C100.07 37.5389 98.7731 36.9233 97.7585 37.2253C96.7439 37.5274 96.0778 38.492 95.8765 39.4784C95.7796 39.8938 95.7705 40.3232 95.8497 40.7419C95.9289 41.1606 96.0949 41.5605 96.3381 41.9185C96.8509 42.6154 97.7933 43.0503 98.6723 42.8734C99.6757 42.6715 100.371 41.7463 100.57 40.7959C100.769 39.8455 100.571 38.8657 100.374 37.915L100.171 38.5389Z" fill="#2F2E41"/>
<path d="M114.45 39.9675C114.349 38.9675 113.052 38.3519 112.037 38.6539C111.023 38.956 110.357 39.9206 110.155 40.907C110.058 41.3224 110.049 41.7517 110.129 42.1705C110.208 42.5892 110.374 42.989 110.617 43.3471C111.13 44.044 112.072 44.4789 112.951 44.302C113.955 44.1001 114.65 43.1749 114.849 42.2245C115.048 41.2741 114.85 40.2943 114.653 39.3436L114.45 39.9675Z" fill="#2F2E41"/>
<path d="M71.3242 56.1072C71.1915 56.1071 71.0602 56.0808 70.9389 56.0301C70.8175 55.9793 70.7087 55.9052 70.6193 55.8125L60.0413 44.916C59.9212 44.7926 59.7754 44.6941 59.613 44.6266C59.4506 44.5591 59.2751 44.5242 59.0977 44.524H3.19957C2.35129 44.5231 1.53801 44.2045 0.938184 43.6381C0.338354 43.0717 0.000952411 42.3038 0 41.5028V22.4684C0.000951847 21.6674 0.338354 20.8994 0.938184 20.333C1.53801 19.7666 2.35128 19.448 3.19957 19.4471H75.6198C76.4681 19.448 77.2814 19.7666 77.8812 20.333C78.481 20.8994 78.8184 21.6674 78.8194 22.4684V41.5028C78.8184 42.3038 78.481 43.0717 77.8812 43.6381C77.2814 44.2045 76.4681 44.5231 75.6198 44.524H73.5667C73.2273 44.5244 72.9019 44.6519 72.662 44.8785C72.422 45.1051 72.287 45.4123 72.2866 45.7327V55.2C72.2875 55.3828 72.2294 55.5615 72.1201 55.7124C72.0108 55.8632 71.8555 55.9791 71.6748 56.0446C71.5631 56.0859 71.4442 56.1071 71.3242 56.1072Z" fill="white"/>
<path d="M71.3242 56.1072C71.1915 56.1071 71.0602 56.0808 70.9389 56.0301C70.8175 55.9793 70.7087 55.9052 70.6193 55.8125L60.0413 44.916C59.9212 44.7926 59.7754 44.6941 59.613 44.6266C59.4506 44.5591 59.2751 44.5242 59.0977 44.524H3.19957C2.35129 44.5231 1.53801 44.2045 0.938184 43.6381C0.338354 43.0717 0.000952411 42.3038 0 41.5028V22.4684C0.000951847 21.6674 0.338354 20.8994 0.938184 20.333C1.53801 19.7666 2.35128 19.448 3.19957 19.4471H75.6198C76.4681 19.448 77.2814 19.7666 77.8812 20.333C78.481 20.8994 78.8184 21.6674 78.8194 22.4684V41.5028C78.8184 42.3038 78.481 43.0717 77.8812 43.6381C77.2814 44.2045 76.4681 44.5231 75.6198 44.524H73.5667C73.2273 44.5244 72.9019 44.6519 72.662 44.8785C72.422 45.1051 72.287 45.4123 72.2866 45.7327V55.2C72.2875 55.3828 72.2294 55.5615 72.1201 55.7124C72.0108 55.8632 71.8555 55.9791 71.6748 56.0446C71.5631 56.0859 71.4442 56.1071 71.3242 56.1072ZM3.19957 19.8497C2.46432 19.8505 1.75942 20.1267 1.23952 20.6176C0.719619 21.1085 0.427176 21.7741 0.426346 22.4684V41.5028C0.427177 42.1971 0.719622 42.8627 1.23952 43.3536C1.75942 43.8445 2.46432 44.1207 3.19957 44.1214H59.0977C59.3342 44.1217 59.5681 44.1683 59.7846 44.2582C60.0011 44.3481 60.1955 44.4795 60.3555 44.6439L70.9336 55.5404C71.0062 55.6152 71.1011 55.6676 71.2058 55.6906C71.3104 55.7136 71.42 55.7063 71.5202 55.6695C71.6204 55.6327 71.7064 55.5682 71.7671 55.4844C71.8278 55.4006 71.8603 55.3015 71.8603 55.2V45.7327C71.8608 45.3056 72.0407 44.896 72.3606 44.5939C72.6805 44.2918 73.1143 44.1219 73.5667 44.1214H75.6198C76.3551 44.1207 77.0599 43.8445 77.5798 43.3536C78.0997 42.8627 78.3922 42.1971 78.393 41.5028V22.4684C78.3922 21.7741 78.0998 21.1085 77.5799 20.6176C77.06 20.1267 76.3551 19.8505 75.6198 19.8497H3.19957Z" fill="#3F3D56"/>
<path d="M7.84809 27.8439C9.39435 27.8439 10.6478 26.6603 10.6478 25.2002C10.6478 23.7401 9.39435 22.5565 7.84809 22.5565C6.30183 22.5565 5.04834 23.7401 5.04834 25.2002C5.04834 26.6603 6.30183 27.8439 7.84809 27.8439Z" fill="#F47C3C"/>
<path d="M72.3537 39.8285H6.46618C6.26994 39.8287 6.07558 39.7924 5.89421 39.7216C5.71284 39.6509 5.54802 39.547 5.40917 39.4161C5.27033 39.2851 5.16018 39.1296 5.08503 38.9585C5.00987 38.7873 4.97119 38.6038 4.97119 38.4185C4.97119 38.2332 5.00987 38.0497 5.08503 37.8785C5.16018 37.7074 5.27033 37.5519 5.40917 37.4209C5.54802 37.29 5.71284 37.1861 5.89421 37.1154C6.07558 37.0446 6.26994 37.0083 6.46618 37.0085H72.3537C72.7494 37.009 73.1287 37.1577 73.4084 37.4221C73.688 37.6865 73.8451 38.0449 73.8451 38.4185C73.8451 38.7922 73.688 39.1505 73.4084 39.4149C73.1287 39.6793 72.7494 39.828 72.3537 39.8285Z" fill="#E6E6E6"/>
<path d="M50.8889 33.8362H6.46618C6.26994 33.8364 6.07558 33.8001 5.89421 33.7293C5.71284 33.6586 5.54802 33.5548 5.40917 33.4238C5.27033 33.2929 5.16018 33.1373 5.08503 32.9662C5.00987 32.795 4.97119 32.6115 4.97119 32.4262C4.97119 32.2409 5.00987 32.0574 5.08503 31.8862C5.16018 31.7151 5.27033 31.5596 5.40917 31.4286C5.54802 31.2977 5.71284 31.1938 5.89421 31.1231C6.07558 31.0523 6.26994 31.016 6.46618 31.0162H50.8889C51.2849 31.0162 51.6647 31.1648 51.9447 31.4292C52.2248 31.6936 52.3821 32.0523 52.3821 32.4262C52.3821 32.8002 52.2248 33.1588 51.9447 33.4232C51.6647 33.6876 51.2849 33.8362 50.8889 33.8362Z" fill="#E6E6E6"/>
<path d="M118.325 120.659C118.145 120.593 117.989 120.477 117.88 120.326C117.771 120.175 117.713 119.997 117.713 119.814V110.347C117.713 110.026 117.578 109.719 117.338 109.492C117.098 109.266 116.773 109.138 116.433 109.138H114.38C113.532 109.137 112.719 108.819 112.119 108.252C111.519 107.686 111.182 106.918 111.181 106.117V87.0824C111.182 86.2814 111.519 85.5134 112.119 84.947C112.719 84.3806 113.532 84.0621 114.38 84.0612H186.8C187.649 84.0621 188.462 84.3806 189.062 84.947C189.662 85.5134 189.999 86.2814 190 87.0824V106.117C189.999 106.918 189.662 107.686 189.062 108.252C188.462 108.819 187.649 109.137 186.8 109.138H130.902C130.725 109.138 130.549 109.173 130.387 109.241C130.225 109.308 130.079 109.407 129.959 109.53L119.381 120.426C119.291 120.519 119.183 120.593 119.061 120.644C118.94 120.695 118.809 120.721 118.676 120.721C118.556 120.721 118.437 120.7 118.325 120.659Z" fill="white"/>
<path d="M118.325 120.659C118.145 120.593 117.989 120.477 117.88 120.326C117.771 120.175 117.713 119.997 117.713 119.814V110.347C117.713 110.026 117.578 109.719 117.338 109.492C117.098 109.266 116.773 109.138 116.433 109.138H114.38C113.532 109.137 112.719 108.819 112.119 108.252C111.519 107.686 111.182 106.918 111.181 106.117V87.0824C111.182 86.2814 111.519 85.5134 112.119 84.947C112.719 84.3806 113.532 84.0621 114.38 84.0612H186.8C187.649 84.0621 188.462 84.3806 189.062 84.947C189.662 85.5134 189.999 86.2814 190 87.0824V106.117C189.999 106.918 189.662 107.686 189.062 108.252C188.462 108.819 187.649 109.137 186.8 109.138H130.902C130.725 109.138 130.549 109.173 130.387 109.241C130.225 109.308 130.079 109.407 129.959 109.53L119.381 120.426C119.291 120.519 119.183 120.593 119.061 120.644C118.94 120.695 118.809 120.721 118.676 120.721C118.556 120.721 118.437 120.7 118.325 120.659ZM114.38 84.4637C113.645 84.4645 112.94 84.7407 112.42 85.2316C111.9 85.7225 111.608 86.3881 111.607 87.0824V106.117C111.608 106.811 111.9 107.477 112.42 107.968C112.94 108.459 113.645 108.735 114.38 108.735H116.433C116.886 108.736 117.32 108.906 117.639 109.208C117.959 109.51 118.139 109.92 118.14 110.347V119.814C118.14 119.915 118.172 120.015 118.233 120.098C118.294 120.182 118.38 120.247 118.48 120.283C118.58 120.32 118.69 120.328 118.794 120.305C118.899 120.282 118.994 120.229 119.066 120.154L129.645 109.258C129.805 109.093 129.999 108.962 130.215 108.872C130.432 108.782 130.666 108.736 130.902 108.735H186.8C187.536 108.735 188.241 108.458 188.761 107.968C189.28 107.477 189.573 106.811 189.574 106.117V87.0824C189.573 86.3881 189.28 85.7225 188.761 85.2316C188.241 84.7407 187.536 84.4645 186.8 84.4637H114.38Z" fill="#3F3D56"/>
<path d="M95.7528 126.553C92.7829 128.349 89.3421 129.328 85.816 129.381C82.29 129.434 78.8179 128.559 75.7891 126.853C76.3219 125.916 76.997 125.059 77.793 124.307C79.0211 123.141 80.5157 122.258 82.1621 121.723C83.8084 121.188 85.5626 121.017 87.2899 121.223C89.0173 121.428 90.6717 122.005 92.1262 122.908C93.5807 123.812 94.7965 125.018 95.6802 126.434C95.7037 126.473 95.7293 126.513 95.7528 126.553Z" fill="#F47C3C"/>
<path d="M84.9367 116.927C90.1407 116.927 94.3593 112.944 94.3593 108.03C94.3593 103.116 90.1407 99.1327 84.9367 99.1327C79.7328 99.1327 75.5142 103.116 75.5142 108.03C75.5142 112.944 79.7328 116.927 84.9367 116.927Z" fill="#2F2E41"/>
<path d="M91.9478 114.306C93.8056 111.096 92.5566 107.073 89.1581 105.319C85.7596 103.564 81.4985 104.744 79.6407 107.953C77.7829 111.162 79.0319 115.186 82.4304 116.94C85.8289 118.694 90.09 117.515 91.9478 114.306Z" fill="#FFB8B8"/>
<path d="M78.4258 106.964C80.0283 108.007 81.9305 108.562 83.8768 108.555C83.1825 109.009 82.3921 109.316 81.5601 109.455C84.1479 109.979 86.8224 109.993 89.4162 109.496C89.9928 109.409 90.5491 109.228 91.0608 108.963C91.3158 108.828 91.538 108.645 91.7129 108.424C91.8878 108.203 92.0115 107.95 92.076 107.681C92.2483 106.751 91.4811 105.906 90.6837 105.337C89.4629 104.479 88.0553 103.887 86.5627 103.606C85.0702 103.324 83.53 103.359 82.0536 103.709C81.0896 103.944 80.1239 104.342 79.4977 105.073C78.8715 105.804 78.686 106.931 79.2826 107.683L78.4258 106.964Z" fill="#2F2E41"/>
<path d="M85.5136 129.584C80.8989 129.583 76.4394 128.011 72.9532 125.156C69.467 122.301 67.1877 118.355 66.5336 114.041C65.8794 109.728 66.8942 105.336 69.3917 101.672C71.8893 98.0081 75.7022 95.3171 80.131 94.0929C84.5598 92.8686 89.3076 93.1932 93.5034 95.0071C97.6993 96.821 101.062 100.002 102.974 103.968C104.887 107.934 105.221 112.417 103.916 116.597C102.61 120.776 99.753 124.371 95.8676 126.722C92.7778 128.593 89.184 129.586 85.5136 129.584ZM85.5136 93.7548C81.8028 93.7544 78.1753 94.7931 75.0898 96.7396C72.0043 98.686 69.5994 101.453 68.1792 104.69C66.759 107.927 66.3873 111.489 67.1112 114.926C67.835 118.362 69.6219 121.519 72.2457 123.996C74.8696 126.474 78.2127 128.161 81.8521 128.845C85.4916 129.528 89.2639 129.177 92.6921 127.836C96.1203 126.495 99.0504 124.224 101.112 121.311C103.173 118.397 104.273 114.972 104.273 111.468C104.267 106.772 102.289 102.27 98.7721 98.9488C95.2553 95.628 90.4871 93.7601 85.5136 93.7548Z" fill="#3F3D56"/>
<path d="M120.191 92.2565C121.737 92.2565 122.991 91.0729 122.991 89.6128C122.991 88.1527 121.737 86.9691 120.191 86.9691C118.645 86.9691 117.391 88.1527 117.391 89.6128C117.391 91.0729 118.645 92.2565 120.191 92.2565Z" fill="#F47C3C"/>
<path d="M184.695 104.241H118.808C118.612 104.241 118.417 104.205 118.236 104.134C118.055 104.064 117.89 103.96 117.751 103.829C117.612 103.698 117.502 103.542 117.427 103.371C117.352 103.2 117.313 103.016 117.313 102.831C117.313 102.646 117.352 102.462 117.427 102.291C117.502 102.12 117.612 101.964 117.751 101.834C117.89 101.703 118.055 101.599 118.236 101.528C118.417 101.457 118.612 101.421 118.808 101.421H184.695C185.091 101.421 185.471 101.57 185.751 101.834C186.031 102.099 186.189 102.457 186.189 102.831C186.189 103.205 186.031 103.564 185.751 103.828C185.471 104.093 185.091 104.241 184.695 104.241Z" fill="#E6E6E6"/>
<path d="M163.231 98.2487H118.808C118.612 98.249 118.417 98.2127 118.236 98.1419C118.055 98.0711 117.89 97.9673 117.751 97.8364C117.612 97.7054 117.502 97.5499 117.427 97.3787C117.352 97.2076 117.313 97.0241 117.313 96.8388C117.313 96.6535 117.352 96.47 117.427 96.2988C117.502 96.1277 117.612 95.9722 117.751 95.8412C117.89 95.7103 118.055 95.6064 118.236 95.5357C118.417 95.4649 118.612 95.4286 118.808 95.4288H163.231C163.626 95.4293 164.006 95.578 164.285 95.8424C164.565 96.1068 164.722 96.4651 164.722 96.8388C164.722 97.2124 164.565 97.5708 164.285 97.8352C164.006 98.0996 163.626 98.2483 163.231 98.2487Z" fill="#E6E6E6"/>
<path d="M118.235 122.461C121.12 122.461 123.458 122.215 123.458 121.913C123.458 121.611 121.12 121.366 118.235 121.366C115.35 121.366 113.011 121.611 113.011 121.913C113.011 122.215 115.35 122.461 118.235 122.461Z" fill="#F2F2F2"/>
<path d="M71.5498 58.0481C74.4347 58.0481 76.7733 57.803 76.7733 57.5007C76.7733 57.1983 74.4347 56.9532 71.5498 56.9532C68.6649 56.9532 66.3262 57.1983 66.3262 57.5007C66.3262 57.803 68.6649 58.0481 71.5498 58.0481Z" fill="#F2F2F2"/>
</svg>
