<svg width="18" height="19" viewBox="0 0 18 19" fill="none" xmlns="http://www.w3.org/2000/svg">
<path d="M3.375 15.9752C3.375 15.9752 2.25 15.9752 2.25 14.8502C2.25 13.7252 3.375 10.3502 9 10.3502C14.625 10.3502 15.75 13.7252 15.75 14.8502C15.75 15.9752 14.625 15.9752 14.625 15.9752H3.375ZM9 9.22516C9.89511 9.22516 10.7536 8.86958 11.3865 8.23664C12.0194 7.60371 12.375 6.74526 12.375 5.85016C12.375 4.95505 12.0194 4.09661 11.3865 3.46367C10.7536 2.83074 9.89511 2.47516 9 2.47516C8.10489 2.47516 7.24645 2.83074 6.61351 3.46367C5.98058 4.09661 5.625 4.95505 5.625 5.85016C5.625 6.74526 5.98058 7.60371 6.61351 8.23664C7.24645 8.86958 8.10489 9.22516 9 9.22516Z" fill="#29ABE0"/>
</svg>
