<svg width="206" height="158" viewBox="0 0 206 158" fill="none" xmlns="http://www.w3.org/2000/svg">
<g clip-path="url(#clip0_129_94)" filter="url(#filter0_d_129_94)">
<path d="M103.581 0H15.2909C12.2974 0.00336449 9.42745 1.19184 7.31073 3.30469C5.19401 5.41754 4.00336 8.28221 4 11.2702V114.751C4.00336 117.739 5.19402 120.604 7.31073 122.717C9.42745 124.83 12.2974 126.018 15.2909 126.022H103.581C106.574 126.018 109.444 124.83 111.561 122.717C113.678 120.604 114.868 117.739 114.872 114.751V11.2702C114.868 8.28221 113.678 5.41754 111.561 3.30469C109.444 1.19184 106.574 0.00336449 103.581 0Z" fill="#3E3F3A"/>
<path d="M103.581 3.24451H15.291C13.1592 3.24689 11.1155 4.09323 9.60814 5.59783C8.10077 7.10244 7.25288 9.14244 7.25049 11.2703V114.751C7.25288 116.879 8.10078 118.919 9.60814 120.424C11.1155 121.928 13.1593 122.775 15.291 122.777H103.581C105.713 122.775 107.757 121.928 109.264 120.424C110.771 118.919 111.619 116.879 111.622 114.751V11.2703C111.619 9.14246 110.771 7.10247 109.264 5.59787C107.757 4.09326 105.713 3.24692 103.581 3.24451Z" fill="white"/>
<path d="M90.2935 33.334H45.6459C45.1472 33.334 44.6689 33.1363 44.3163 32.7843C43.9637 32.4324 43.7656 31.955 43.7656 31.4572C43.7656 30.9595 43.9637 30.4821 44.3163 30.1301C44.6689 29.7782 45.1472 29.5804 45.6459 29.5804H90.2935C90.5405 29.5804 90.785 29.629 91.0131 29.7233C91.2412 29.8176 91.4485 29.9559 91.6231 30.1301C91.7977 30.3044 91.9362 30.5113 92.0307 30.739C92.1251 30.9667 92.1738 31.2108 92.1738 31.4572C92.1738 31.7037 92.1251 31.9478 92.0307 32.1755C91.9362 32.4032 91.7977 32.6101 91.6231 32.7843C91.4485 32.9586 91.2412 33.0968 91.0131 33.1912C90.785 33.2855 90.5405 33.334 90.2935 33.334Z" fill="#F2F2F2"/>
<path d="M98.0489 39.6681H45.6452C45.1469 39.6676 44.6692 39.4696 44.3171 39.1177C43.9649 38.7658 43.7671 38.2887 43.7671 37.7913C43.7671 37.294 43.9649 36.8169 44.3171 36.465C44.6692 36.1131 45.1469 35.9151 45.6452 35.9146H98.0489C98.5472 35.9151 99.0249 36.1131 99.3771 36.465C99.7292 36.8169 99.927 37.294 99.927 37.7913C99.927 38.2887 99.7292 38.7658 99.3771 39.1177C99.0249 39.4696 98.5472 39.6676 98.0489 39.6681Z" fill="#F2F2F2"/>
<path d="M90.2935 61.7205H45.6459C45.1472 61.7205 44.6689 61.5228 44.3163 61.1708C43.9637 60.8188 43.7656 60.3415 43.7656 59.8437C43.7656 59.346 43.9637 58.8686 44.3163 58.5166C44.6689 58.1647 45.1472 57.9669 45.6459 57.9669H90.2935C90.5405 57.9669 90.785 58.0155 91.0131 58.1098C91.2412 58.2041 91.4485 58.3423 91.6231 58.5166C91.7977 58.6909 91.9362 58.8978 92.0307 59.1255C92.1251 59.3532 92.1738 59.5972 92.1738 59.8437C92.1738 60.0902 92.1251 60.3342 92.0307 60.5619C91.9362 60.7896 91.7977 60.9965 91.6231 61.1708C91.4485 61.3451 91.2412 61.4833 91.0131 61.5776C90.785 61.6719 90.5405 61.7205 90.2935 61.7205Z" fill="#F2F2F2"/>
<path d="M98.0489 68.0546H45.6452C45.1469 68.0541 44.6692 67.8561 44.3171 67.5042C43.9649 67.1523 43.7671 66.6752 43.7671 66.1778C43.7671 65.6804 43.9649 65.2034 44.3171 64.8515C44.6692 64.4996 45.1469 64.3016 45.6452 64.301H98.0489C98.5472 64.3016 99.0249 64.4996 99.3771 64.8515C99.7292 65.2034 99.927 65.6804 99.927 66.1778C99.927 66.6752 99.7292 67.1523 99.3771 67.5042C99.0249 67.8561 98.5472 68.0541 98.0489 68.0546Z" fill="#F2F2F2"/>
<path d="M90.2935 90.107H45.6459C45.1472 90.107 44.6689 89.9092 44.3163 89.5573C43.9637 89.2053 43.7656 88.7279 43.7656 88.2302C43.7656 87.7324 43.9637 87.2551 44.3163 86.9031C44.6689 86.5511 45.1472 86.3534 45.6459 86.3534H90.2935C90.5406 86.3531 90.7854 86.4015 91.0137 86.4957C91.2421 86.5898 91.4496 86.728 91.6244 86.9024C91.7993 87.0767 91.9379 87.2836 92.0325 87.5115C92.1272 87.7393 92.1759 87.9835 92.1759 88.2302C92.1759 88.4768 92.1272 88.721 92.0325 88.9489C91.9379 89.1767 91.7993 89.3837 91.6244 89.558C91.4496 89.7323 91.2421 89.8705 91.0137 89.9647C90.7854 90.0589 90.5406 90.1073 90.2935 90.107Z" fill="#F2F2F2"/>
<path d="M98.0489 96.4412H45.6452C45.1469 96.4407 44.6692 96.2427 44.3171 95.8908C43.9649 95.5389 43.7671 95.0618 43.7671 94.5644C43.7671 94.067 43.9649 93.59 44.3171 93.2381C44.6692 92.8862 45.1469 92.6882 45.6452 92.6876H98.0489C98.5472 92.6882 99.0249 92.8862 99.3771 93.2381C99.7292 93.59 99.927 94.067 99.927 94.5644C99.927 95.0618 99.7292 95.5389 99.3771 95.8908C99.0249 96.2427 98.5472 96.4407 98.0489 96.4412Z" fill="#F2F2F2"/>
<path d="M35.6444 42.5436H19.844C19.6049 42.5433 19.3758 42.4484 19.2067 42.2797C19.0377 42.111 18.9426 41.8823 18.9424 41.6437V27.6049C18.9426 27.3663 19.0377 27.1375 19.2067 26.9688C19.3758 26.8001 19.6049 26.7052 19.844 26.705H35.6444C35.8834 26.7052 36.1125 26.8001 36.2816 26.9688C36.4506 27.1375 36.5457 27.3663 36.5459 27.6049V41.6437C36.5457 41.8823 36.4506 42.111 36.2816 42.2797C36.1125 42.4484 35.8834 42.5433 35.6444 42.5436Z" fill="#E6E6E6"/>
<path d="M35.6444 70.9301H19.844C19.6049 70.9298 19.3758 70.8349 19.2067 70.6662C19.0377 70.4975 18.9426 70.2688 18.9424 70.0302V55.9914C18.9426 55.7528 19.0377 55.524 19.2067 55.3553C19.3758 55.1866 19.6049 55.0917 19.844 55.0914H35.6444C35.8834 55.0917 36.1125 55.1866 36.2816 55.3553C36.4506 55.524 36.5457 55.7528 36.5459 55.9914V70.0302C36.5457 70.2688 36.4506 70.4975 36.2816 70.6662C36.1125 70.8349 35.8834 70.9298 35.6444 70.9301Z" fill="#E6E6E6"/>
<path d="M35.6444 99.3166H19.844C19.6049 99.3163 19.3758 99.2214 19.2067 99.0527C19.0377 98.884 18.9426 98.6552 18.9424 98.4166V84.3778C18.9426 84.1392 19.0377 83.9105 19.2067 83.7418C19.3758 83.5731 19.6049 83.4782 19.844 83.4779H35.6444C35.8834 83.4782 36.1125 83.5731 36.2816 83.7418C36.4506 83.9105 36.5457 84.1392 36.5459 84.3778V98.4166C36.5457 98.6552 36.4506 98.884 36.2816 99.0527C36.1125 99.2214 35.8834 99.3163 35.6444 99.3166Z" fill="#E6E6E6"/>
<path d="M181.359 97.8687L182.059 91.7544L185.571 61.0976L186.272 54.9834C186.609 52.0143 185.752 49.0332 183.889 46.694C182.027 44.3548 179.31 42.8485 176.337 42.5057L96.6468 33.41C93.6723 33.0739 90.6857 33.9292 88.3422 35.7884C85.9987 37.6475 84.4897 40.3586 84.1462 43.3269L84.1444 43.3427L79.2352 86.1964L79.2334 86.2122C78.8967 89.1812 79.7536 92.1624 81.6161 94.5016C83.4786 96.8408 86.1947 98.347 89.1684 98.6898L168.858 107.786C171.833 108.122 174.82 107.266 177.163 105.407C179.507 103.548 181.016 100.837 181.359 97.8687Z" fill="#3E3F3A"/>
<path d="M178.13 97.5003L178.959 90.2583L182.213 61.8567L183.042 54.6149C183.282 52.5006 182.672 50.3776 181.346 48.7118C180.019 47.046 178.085 45.9734 175.967 45.7293L96.2775 36.6335C94.1593 36.3942 92.0324 37.0033 90.3636 38.3272C88.6947 39.6512 87.6201 41.5818 87.3756 43.6956L87.3738 43.7114L82.4646 86.5651L82.4627 86.581C82.223 88.6953 82.8332 90.8182 84.1595 92.484C85.4859 94.1498 87.42 95.2224 89.5377 95.4665L169.228 104.562C171.346 104.802 173.473 104.193 175.142 102.869C176.81 101.545 177.885 99.6141 178.13 97.5003Z" fill="white"/>
<path d="M165.085 58.6439L120.727 53.5809C120.481 53.5531 120.244 53.4773 120.027 53.3578C119.811 53.2383 119.621 53.0775 119.467 52.8845C119.313 52.6915 119.199 52.4701 119.131 52.2331C119.063 51.996 119.042 51.7478 119.07 51.5028C119.098 51.2578 119.175 51.0207 119.294 50.8051C119.414 50.5894 119.576 50.3995 119.769 50.2462C119.963 50.0928 120.185 49.979 120.422 49.9113C120.66 49.8436 120.908 49.8233 121.154 49.8516L165.513 54.9146C166.008 54.9717 166.46 55.2225 166.77 55.6121C167.079 56.0017 167.222 56.4981 167.165 56.9923C167.108 57.4865 166.858 57.938 166.468 58.2477C166.078 58.5574 165.58 58.6999 165.085 58.6439Z" fill="#E6E6E6"/>
<path d="M172.07 65.8167L120.006 59.8741C119.76 59.8463 119.523 59.7705 119.307 59.651C119.09 59.5315 118.9 59.3707 118.746 59.1777C118.592 58.9847 118.478 58.7633 118.41 58.5262C118.342 58.2892 118.322 58.041 118.35 57.796C118.378 57.551 118.454 57.3139 118.574 57.0983C118.694 56.8827 118.855 56.6928 119.048 56.5394C119.242 56.3861 119.464 56.2723 119.701 56.2046C119.939 56.1369 120.188 56.1166 120.433 56.1448L172.497 62.0874C172.743 62.1154 172.98 62.1913 173.196 62.3109C173.412 62.4305 173.602 62.5913 173.756 62.7843C173.909 62.9772 174.023 63.1985 174.091 63.4354C174.159 63.6724 174.18 63.9204 174.152 64.1652C174.124 64.4101 174.048 64.647 173.928 64.8626C173.808 65.0781 173.647 65.2679 173.454 65.4213C173.26 65.5746 173.039 65.6885 172.801 65.7563C172.564 65.8242 172.316 65.8447 172.07 65.8167Z" fill="#E6E6E6"/>
<path d="M170.619 78.3682L93.8596 69.6071C93.3645 69.5501 92.9124 69.2992 92.6025 68.9096C92.2926 68.5201 92.1504 68.0236 92.207 67.5294C92.2636 67.0352 92.5145 66.5837 92.9044 66.274C93.2944 65.9643 93.7916 65.8218 94.2868 65.8778L171.046 74.639C171.291 74.6667 171.529 74.7426 171.745 74.8621C171.961 74.9815 172.152 75.1424 172.305 75.3354C172.459 75.5284 172.573 75.7497 172.641 75.9868C172.709 76.2239 172.73 76.472 172.702 76.717C172.674 76.962 172.598 77.1991 172.478 77.4147C172.358 77.6304 172.197 77.8203 172.003 77.9736C171.81 78.127 171.588 78.2408 171.35 78.3085C171.113 78.3762 170.864 78.3965 170.619 78.3682H170.619Z" fill="#E6E6E6"/>
<path d="M170.144 84.6895L93.1384 75.9002C92.6433 75.8431 92.1912 75.5923 91.8813 75.2027C91.5715 74.8131 91.4292 74.3167 91.4858 73.8225C91.5424 73.3283 91.7933 72.8768 92.1833 72.5671C92.5732 72.2574 93.0704 72.1149 93.5656 72.1709L170.571 80.9602C171.066 81.0172 171.518 81.2681 171.828 81.6577C172.138 82.0472 172.28 82.5437 172.224 83.0379C172.167 83.5321 171.916 83.9836 171.526 84.2933C171.136 84.603 170.639 84.7455 170.144 84.6895Z" fill="#E6E6E6"/>
<path d="M169.206 90.6997L92.4468 81.9386C92.2013 81.9108 91.9637 81.835 91.7476 81.7155C91.5314 81.596 91.341 81.4352 91.1872 81.2422C91.0334 81.0492 90.9191 80.8278 90.8511 80.5907C90.783 80.3536 90.7624 80.1055 90.7905 79.8605C90.8186 79.6154 90.8947 79.3783 91.0147 79.1627C91.1346 78.9471 91.2959 78.7572 91.4894 78.6038C91.6829 78.4505 91.9048 78.3367 92.1424 78.269C92.38 78.2013 92.6286 78.181 92.8741 78.2093L169.633 86.9705C170.128 87.0275 170.58 87.2783 170.89 87.6679C171.2 88.0575 171.342 88.5539 171.286 89.0481C171.229 89.5423 170.978 89.9939 170.588 90.3036C170.198 90.6133 169.701 90.7558 169.206 90.6998V90.6997Z" fill="#E6E6E6"/>
<path d="M168.731 97.0211L91.7258 88.2317C91.2307 88.1747 90.7786 87.9238 90.4687 87.5343C90.1588 87.1447 90.0166 86.6483 90.0732 86.1541C90.1298 85.6599 90.3807 85.2083 90.7707 84.8986C91.1606 84.5889 91.6578 84.4464 92.153 84.5024L169.159 93.2918C169.404 93.3195 169.642 93.3953 169.858 93.5148C170.074 93.6343 170.265 93.7952 170.418 93.9882C170.572 94.1812 170.686 94.4025 170.754 94.6396C170.823 94.8767 170.843 95.1248 170.815 95.3698C170.787 95.6149 170.711 95.852 170.591 96.0676C170.471 96.2832 170.31 96.4731 170.116 96.6265C169.923 96.7798 169.701 96.8936 169.463 96.9613C169.226 97.029 168.977 97.0493 168.731 97.0211Z" fill="#E6E6E6"/>
<path d="M109.742 61.5967L94.0437 59.8049C93.8062 59.7776 93.5893 59.6573 93.4406 59.4705C93.2919 59.2837 93.2235 59.0457 93.2504 58.8086L94.8482 44.8607C94.8756 44.6237 94.9961 44.4072 95.1832 44.2587C95.3704 44.1103 95.6089 44.042 95.8464 44.0688L111.544 45.8606C111.782 45.888 111.999 46.0082 112.148 46.195C112.296 46.3818 112.365 46.6198 112.338 46.8569L110.74 60.8048C110.713 61.0418 110.592 61.2583 110.405 61.4068C110.218 61.5552 109.979 61.6235 109.742 61.5967Z" fill="#F47C3C"/>
<path d="M201.682 149.963H150.301C150.239 149.963 150.179 149.938 150.135 149.894C150.091 149.85 150.066 149.791 150.066 149.729C150.066 149.667 150.091 149.607 150.135 149.563C150.179 149.519 150.239 149.495 150.301 149.495H201.682C201.744 149.495 201.804 149.519 201.848 149.563C201.892 149.607 201.916 149.667 201.916 149.729C201.916 149.791 201.892 149.85 201.848 149.894C201.804 149.938 201.744 149.963 201.682 149.963Z" fill="#3F3D56"/>
<path d="M182.389 60.495C182.31 60.8062 182.3 61.1309 182.36 61.4462C182.421 61.7616 182.55 62.0598 182.738 62.3201C182.926 62.5803 183.169 62.7962 183.45 62.9525C183.731 63.1087 184.043 63.2016 184.364 63.2246L185.953 67.9853L189.087 67.7267L186.748 61.0351C186.751 60.4947 186.555 59.9719 186.198 59.5659C185.84 59.1599 185.346 58.8988 184.809 58.8323C184.271 58.7657 183.728 58.8982 183.282 59.2046C182.836 59.5111 182.518 59.9702 182.389 60.495Z" fill="#FFB8B8"/>
<path d="M184.789 91.671C185.156 92.0077 185.606 92.2418 186.093 92.3495C186.58 92.4573 187.087 92.4349 187.562 92.2847C188.037 92.1345 188.465 91.8618 188.801 91.494C189.137 91.1263 189.37 90.6765 189.476 90.1902L191.959 78.8385C192.383 76.8973 192.283 74.8785 191.669 72.9885L188.764 64.0484C188.722 63.9201 188.653 63.8023 188.562 63.703C188.47 63.6038 188.358 63.5254 188.234 63.4733C188.109 63.4212 187.975 63.3966 187.84 63.4012C187.704 63.4057 187.572 63.4394 187.451 63.4997L185.555 64.4472C185.359 64.5453 185.203 64.7091 185.115 64.9099C185.027 65.1107 185.013 65.336 185.074 65.5464L185.265 66.2026C186.855 71.6593 186.938 77.4432 185.507 82.9432L183.963 88.8752C183.833 89.3722 183.842 89.8949 183.987 90.3875C184.133 90.88 184.41 91.3237 184.789 91.671Z" fill="#F47C3C"/>
<path d="M174.857 147.514L172.175 147.514L170.899 137.187L174.858 137.187L174.857 147.514Z" fill="#FFB8B8"/>
<path d="M170.259 146.749H175.432V150H167.002C167.002 149.573 167.086 149.15 167.25 148.756C167.414 148.361 167.653 148.003 167.956 147.701C168.258 147.399 168.617 147.159 169.013 146.996C169.408 146.833 169.831 146.749 170.259 146.749Z" fill="#2F2E41"/>
<path d="M189.314 147.514L186.632 147.514L185.356 137.187L189.315 137.187L189.314 147.514Z" fill="#FFB8B8"/>
<path d="M184.716 146.749H189.889V150H181.459C181.459 149.573 181.543 149.15 181.707 148.756C181.871 148.361 182.11 148.003 182.413 147.701C182.715 147.399 183.074 147.159 183.47 146.996C183.865 146.833 184.288 146.749 184.716 146.749Z" fill="#2F2E41"/>
<path d="M181.459 74.1024C184.641 74.1024 187.221 71.5273 187.221 68.3506C187.221 65.1739 184.641 62.5988 181.459 62.5988C178.276 62.5988 175.696 65.1739 175.696 68.3506C175.696 71.5273 178.276 74.1024 181.459 74.1024Z" fill="#FFB8B8"/>
<path d="M161.756 105.862C161.796 105.543 161.906 105.238 162.077 104.966C162.248 104.694 162.477 104.464 162.748 104.29C163.018 104.116 163.324 104.004 163.643 103.961C163.961 103.918 164.286 103.945 164.593 104.04L167.813 100.187L170.636 101.569L166.012 106.947C165.817 107.451 165.444 107.867 164.962 108.115C164.481 108.362 163.926 108.425 163.401 108.292C162.876 108.158 162.419 107.837 162.116 107.389C161.812 106.941 161.684 106.398 161.756 105.862Z" fill="#FFB8B8"/>
<path d="M182.862 74.1022C183.729 74.1209 184.59 73.9562 185.389 73.6189C186.188 73.2816 186.907 72.7794 187.497 72.1452C188.088 71.5111 188.538 70.7593 188.816 69.9394C189.095 69.1195 189.197 68.2499 189.115 67.3879C189.033 66.5259 188.77 65.6909 188.342 64.9379C187.914 64.1848 187.331 63.5307 186.631 63.0185C185.932 62.5064 185.132 62.1478 184.283 61.9663C183.435 61.7848 182.558 61.7845 181.71 61.9654C180.443 61.1974 178.969 60.6806 177.493 60.812C176.016 60.9435 174.556 61.8186 174.003 63.1919C173.451 64.5652 174.044 66.3754 175.417 66.9335C176.298 67.2913 177.292 67.1178 178.231 66.9735C179.17 66.8292 180.195 66.7351 181.013 67.2189C181.83 67.7027 182.198 69 181.466 69.6049C181.078 69.9382 180.8 70.3817 180.671 70.8762C180.542 71.3708 180.567 71.8929 180.742 72.373C181.11 73.3229 182.114 74.0861 182.862 74.1022Z" fill="#2F2E41"/>
<path d="M190.011 105.635L191.034 144.355C191.037 144.484 191.014 144.612 190.965 144.732C190.916 144.852 190.843 144.96 190.751 145.05C190.658 145.14 190.548 145.21 190.427 145.256C190.306 145.301 190.177 145.322 190.048 145.315L186.68 145.144C186.465 145.133 186.261 145.048 186.101 144.905C185.941 144.761 185.835 144.567 185.801 144.355L181.796 119.206C181.779 119.098 181.725 119 181.643 118.928C181.561 118.856 181.457 118.815 181.347 118.811C181.238 118.808 181.131 118.843 181.045 118.91C180.959 118.976 180.899 119.071 180.875 119.177L175.453 143.392C175.424 143.521 175.368 143.643 175.289 143.749C175.209 143.855 175.108 143.943 174.991 144.007C174.875 144.071 174.746 144.11 174.614 144.121C174.482 144.132 174.348 144.114 174.223 144.07L170.881 143.866C170.688 143.797 170.523 143.667 170.41 143.496C170.298 143.325 170.245 143.121 170.26 142.917L173.177 105.268L190.011 105.635Z" fill="#2F2E41"/>
<path d="M191.652 87.2439C192.216 81.3763 187.894 76.069 182.003 75.6515C179.465 75.4716 175.525 75.4073 174.226 78.7279C170.313 88.7309 177.163 88.4878 174.803 97.1543C172.443 105.821 170.359 106.318 173.597 106.943C176.835 107.569 191.396 111.263 190.798 105.164C190.431 101.414 191.09 93.0969 191.652 87.2439Z" fill="#F47C3C"/>
<path d="M175.388 77.7103C175.853 77.5307 176.357 77.4766 176.85 77.5536C177.343 77.6307 177.806 77.836 178.194 78.1491C178.582 78.4621 178.88 78.8717 179.059 79.3365C179.237 79.8013 179.29 80.3049 179.211 80.7965L177.372 92.2695C177.057 94.2314 176.226 96.0746 174.963 97.6105L168.99 104.876C168.904 104.98 168.797 105.065 168.675 105.124C168.554 105.183 168.421 105.215 168.286 105.218C168.151 105.221 168.017 105.195 167.893 105.142C167.769 105.088 167.658 105.009 167.567 104.908L166.148 103.336C166.001 103.173 165.916 102.964 165.908 102.745C165.9 102.526 165.968 102.311 166.102 102.137L166.52 101.596C169.995 97.0945 172.187 91.7399 172.865 86.0977L173.596 80.0124C173.658 79.5025 173.857 79.0189 174.172 78.6134C174.488 78.2079 174.908 77.8957 175.388 77.7103Z" fill="#F47C3C"/>
</g>
<defs>
<filter id="filter0_d_129_94" x="0" y="0" width="205.917" height="158" filterUnits="userSpaceOnUse" color-interpolation-filters="sRGB">
<feFlood flood-opacity="0" result="BackgroundImageFix"/>
<feColorMatrix in="SourceAlpha" type="matrix" values="0 0 0 0 0 0 0 0 0 0 0 0 0 0 0 0 0 0 127 0" result="hardAlpha"/>
<feOffset dy="4"/>
<feGaussianBlur stdDeviation="2"/>
<feComposite in2="hardAlpha" operator="out"/>
<feColorMatrix type="matrix" values="0 0 0 0 0 0 0 0 0 0 0 0 0 0 0 0 0 0 0.25 0"/>
<feBlend mode="normal" in2="BackgroundImageFix" result="effect1_dropShadow_129_94"/>
<feBlend mode="normal" in="SourceGraphic" in2="effect1_dropShadow_129_94" result="shape"/>
</filter>
<clipPath id="clip0_129_94">
<rect width="197.917" height="150" fill="white" transform="translate(4)"/>
</clipPath>
</defs>
</svg>
